<svg width="424" height="606" viewBox="0 0 424 606" fill="none" xmlns="http://www.w3.org/2000/svg">
<path d="M136.119 196.464H145.951V584.809H136.119V196.464Z" fill="#3F3D56"/>
<path d="M45.386 245.954C44.76 381.748 140.299 492.274 140.299 492.274C140.299 492.274 236.852 382.634 237.478 246.839C238.104 111.044 142.565 0.518311 142.565 0.518311C142.565 0.518311 46.011 110.159 45.386 245.954Z" fill="#3F3D56"/>
<path d="M332.7 379.186H337.756V578.921H332.7V379.186Z" fill="#3F3D56"/>
<path d="M286.033 404.64C285.711 474.482 334.849 531.328 334.849 531.328C334.849 531.328 384.509 474.937 384.831 405.095C385.152 335.252 336.015 278.406 336.015 278.406C336.015 278.406 286.355 334.797 286.033 404.64Z" fill="#3F3D56"/>
<path d="M233.031 605.515C157.368 605.515 96.031 596.113 96.031 584.515C96.031 572.917 157.368 563.515 233.031 563.515C308.694 563.515 370.031 572.917 370.031 584.515C370.031 596.113 308.694 605.515 233.031 605.515Z" fill="#BF1E37"/>
<path d="M221.732 95.0812C233.339 75.4692 256.302 74.5552 256.302 74.5552C256.302 74.5552 278.679 71.6937 293.033 101.563C306.413 129.404 324.878 156.285 296.006 162.802L290.791 146.57L287.561 164.011C283.45 164.306 279.326 164.377 275.208 164.222C244.288 163.223 214.842 164.514 215.79 153.419C217.051 138.669 210.564 113.952 221.732 95.0812Z" fill="#2F2E41"/>
<path d="M263.531 132.015C263.531 132.015 248.531 153.015 257.531 170.015C266.531 187.015 236.531 205.015 236.531 205.015L214.531 157.015C214.531 157.015 240.531 140.015 233.531 124.015L263.531 132.015Z" fill="#FBBEBE"/>
<path d="M253.531 141.015C239.172 141.015 227.531 129.374 227.531 115.015C227.531 100.656 239.172 89.0151 253.531 89.0151C267.891 89.0151 279.531 100.656 279.531 115.015C279.531 129.374 267.891 141.015 253.531 141.015Z" fill="#FBBEBE"/>
<path d="M343.511 145.071L321.783 117.037C321.783 117.037 314.132 87.6522 303.052 89.1419C291.971 90.6316 307.428 124.382 307.428 124.382L329.018 155.412L343.511 145.071Z" fill="#FBBEBE"/>
<path d="M233.531 518.015L226.531 555.015L211.531 559.015L215.531 515.015L233.531 518.015Z" fill="#FBBEBE"/>
<path d="M82.531 478.015L55.531 515.015L44.531 520.015L35.531 505.015L62.531 470.015L82.531 478.015Z" fill="#FBBEBE"/>
<path d="M239.531 189.015L256.212 167.056C256.212 167.056 288.531 173.015 291.531 176.015C294.531 179.015 283.531 234.015 283.531 234.015C283.531 234.015 281.531 249.015 272.531 257.015L263.531 263.015L189.531 248.015L186.749 215.089C185.735 203.096 187.238 191.024 191.162 179.646C195.085 168.268 201.342 157.835 209.531 149.015L222.407 150.775L239.531 189.015Z" fill="#575A89"/>
<path d="M287.531 178.015L292.531 176.015L315.531 174.015C315.531 174.015 323.531 172.015 321.531 168.015C319.531 164.015 317.531 163.015 321.531 162.015C325.531 161.015 326.531 160.015 325.531 157.015C324.531 154.015 318.531 148.015 318.531 148.015L335.531 134.015C335.531 134.015 336.451 134.666 337.939 135.87C346.379 142.704 373.086 167.359 353.531 192.015C330.531 221.015 303.531 238.015 281.531 232.015L287.531 178.015Z" fill="#575A89"/>
<path d="M265.531 258.015V272.015C265.531 272.015 274.531 289.015 271.531 305.015C268.531 321.015 267.531 329.015 267.531 329.015C267.205 342.623 264.846 356.105 260.531 369.015C253.531 389.015 276.531 520.015 247.531 522.015C218.531 524.015 202.531 526.015 193.531 516.015C184.531 506.015 208.531 334.015 208.531 334.015C208.531 334.015 126.531 505.015 109.531 498.015C92.531 491.015 49.531 475.015 54.531 466.015C59.531 457.015 185.531 257.015 185.531 257.015L189.531 248.015L265.531 258.015Z" fill="#D4213D"/>
<path d="M217.531 548.015C217.531 548.015 233.531 547.015 233.531 552.015C233.531 557.015 241.531 574.015 241.531 574.015C241.531 574.015 247.531 594.015 231.531 592.015C215.531 590.015 205.531 572.015 205.531 572.015L209.531 553.015L217.531 548.015Z" fill="#2F2E41"/>
<path d="M50.532 513.015C50.532 513.015 64.532 504.015 63.532 510.015C62.532 516.015 61.532 532.015 54.532 533.015C47.532 534.015 26.532 540.015 25.532 542.015C24.532 544.015 0.532001 552.015 0.532001 539.015C0.532001 526.015 15.532 516.015 15.532 516.015L32.532 503.015C32.532 503.015 43.532 502.015 45.532 509.015C47.532 516.015 50.532 513.015 50.532 513.015Z" fill="#2F2E41"/>
<path d="M253.492 91.2582C244.322 91.2582 236.888 83.8245 236.888 74.6545C236.888 65.4845 244.322 58.0507 253.492 58.0507C262.662 58.0507 270.096 65.4845 270.096 74.6545C270.096 83.8245 262.662 91.2582 253.492 91.2582Z" fill="#2F2E41"/>
<path d="M271.843 70.285C271.843 66.1843 270.325 62.2288 267.582 59.1804C264.839 56.132 261.065 54.2064 256.987 53.7746C257.568 53.7131 258.151 53.682 258.735 53.6813C263.139 53.6813 267.362 55.4306 270.476 58.5444C273.59 61.6582 275.339 65.8815 275.339 70.285C275.339 74.6886 273.59 78.9119 270.476 82.0257C267.362 85.1395 263.139 86.8888 258.735 86.8888C258.151 86.8881 257.568 86.857 256.987 86.7955C261.065 86.3637 264.839 84.4381 267.582 81.3898C270.325 78.3414 271.843 74.3858 271.843 70.285Z" fill="#2F2E41"/>
<path d="M226.864 93.191L249.55 81.307L280.88 86.169L287.362 114.797L271.226 114.176L266.718 103.659V114.003L259.273 113.717L254.952 96.972L252.251 114.797L225.783 114.257L226.864 93.191Z" fill="#2F2E41"/>
<path d="M228.222 260.332L263.209 261.278C263.209 261.278 293.063 267.087 291.388 255.037C289.713 242.987 260.589 247.202 260.589 247.202L228.709 242.338L228.222 260.332Z" fill="#FBBEBE"/>
<path d="M200.54 147.32C198.782 147.054 196.986 147.424 195.476 148.364C193.966 149.304 192.841 150.752 192.304 152.448C185.455 174.032 164.353 246.261 185.319 256.171C210.012 267.842 228.033 267.329 228.033 267.329L237.678 243.581L228.898 235.341L219.523 175.066L215.031 149.515L200.54 147.32Z" fill="#575A89"/>
<path opacity="0.4" d="M207.031 187.515L211.031 227.515L246.031 242.515L207.031 233.515V187.515Z" fill="black"/>
<path d="M395.786 55.4626C384.513 58.4497 374.759 65.5348 368.433 75.3322L365.162 80.3979L364.998 80.6074L307.613 97.3988C306.561 97.7067 305.672 98.415 305.137 99.3716C304.602 100.328 304.463 101.457 304.752 102.514L309.207 118.849C309.352 119.381 309.601 119.879 309.939 120.315C310.278 120.75 310.699 121.115 311.179 121.387C311.658 121.659 312.187 121.833 312.735 121.9C313.282 121.967 313.837 121.925 314.369 121.777L371.768 105.733L371.769 105.735L377.534 107.914C388.149 111.927 399.793 112.323 410.656 109.04L395.786 55.4626Z" fill="#3F3D56"/>
<path d="M335.353 102.836C334.809 100.979 337.192 98.6468 340.675 97.6277C344.158 96.6087 347.421 97.2883 347.965 99.1457C348.508 101.003 346.126 103.335 342.643 104.354C339.161 105.373 335.896 104.693 335.353 102.836Z" fill="#575A89"/>
<path d="M338.284 104.549C336.954 104.549 335.875 103.47 335.875 102.14C335.875 100.809 336.954 99.7306 338.284 99.7306C339.615 99.7306 340.693 100.809 340.693 102.14C340.693 103.47 339.615 104.549 338.284 104.549Z" fill="#3F3D56"/>
<path d="M390.988 86.4033C386.203 71.6458 387.734 57.9283 394.407 55.7644C401.081 53.6004 410.37 63.8095 415.155 78.5669C419.94 93.3244 418.41 107.042 411.736 109.206C405.063 111.37 395.774 101.161 390.988 86.4033Z" fill="#D4213D"/>
<path opacity="0.4" d="M392.772 85.8813C388.161 71.6615 389.415 58.4091 395.483 55.5262C395.118 55.5718 394.758 55.6514 394.407 55.7642C387.734 57.9282 386.203 71.6457 390.988 86.4032C395.774 101.161 405.063 111.37 411.736 109.206C411.978 109.127 412.215 109.032 412.444 108.922C405.88 109.758 397.305 99.8615 392.772 85.8813Z" fill="black"/>
</svg>
