<svg width="424" height="606" viewBox="0 0 424 606" fill="none" xmlns="http://www.w3.org/2000/svg">
<path d="M287.881 196.464H278.049V584.809H287.881V196.464Z" fill="#3F3D56"/>
<path d="M378.614 245.954C379.24 381.748 283.701 492.274 283.701 492.274C283.701 492.274 187.148 382.634 186.522 246.839C185.896 111.044 281.435 0.518356 281.435 0.518356C281.435 0.518356 377.989 110.159 378.614 245.954Z" fill="#3F3D56"/>
<path d="M91.3005 379.186H86.2439V578.921H91.3005V379.186Z" fill="#3F3D56"/>
<path d="M137.967 404.64C138.289 474.482 89.1511 531.328 89.1511 531.328C89.1511 531.328 39.4914 474.937 39.1695 405.095C38.8476 335.252 87.9854 278.406 87.9854 278.406C87.9854 278.406 137.645 334.797 137.967 404.64Z" fill="#3F3D56"/>
<path d="M190.969 605.515C266.632 605.515 327.969 596.113 327.969 584.515C327.969 572.917 266.632 563.515 190.969 563.515C115.306 563.515 53.9686 572.917 53.9686 584.515C53.9686 596.113 115.306 605.515 190.969 605.515Z" fill="#BF1E37"/>
<path d="M202.268 95.0812C190.661 75.4692 167.698 74.5552 167.698 74.5552C167.698 74.5552 145.321 71.6937 130.967 101.563C117.587 129.404 99.1221 156.285 127.994 162.802L133.209 146.57L136.439 164.011C140.55 164.306 144.674 164.377 148.792 164.222C179.712 163.223 209.158 164.514 208.21 153.419C206.949 138.669 213.436 113.952 202.268 95.0812Z" fill="#2F2E41"/>
<path d="M160.469 132.015C160.469 132.015 175.469 153.015 166.469 170.015C157.469 187.015 187.469 205.015 187.469 205.015L209.469 157.015C209.469 157.015 183.469 140.015 190.469 124.015L160.469 132.015Z" fill="#FBBEBE"/>
<path d="M170.469 141.015C184.828 141.015 196.469 129.374 196.469 115.015C196.469 100.656 184.828 89.0151 170.469 89.0151C156.109 89.0151 144.469 100.656 144.469 115.015C144.469 129.374 156.109 141.015 170.469 141.015Z" fill="#FBBEBE"/>
<path d="M80.4891 145.071L102.217 117.037C102.217 117.037 109.868 87.6523 120.948 89.142C132.029 90.6317 116.572 124.382 116.572 124.382L94.9824 155.412L80.4891 145.071Z" fill="#FBBEBE"/>
<path d="M190.469 518.015L197.469 555.015L212.469 559.015L208.469 515.015L190.469 518.015Z" fill="#FBBEBE"/>
<path d="M341.469 478.015L368.469 515.015L379.469 520.015L388.469 505.015L361.469 470.015L341.469 478.015Z" fill="#FBBEBE"/>
<path d="M184.469 189.015L167.788 167.056C167.788 167.056 135.469 173.015 132.469 176.015C129.469 179.015 140.469 234.015 140.469 234.015C140.469 234.015 142.469 249.015 151.469 257.015L160.469 263.015L234.469 248.015L237.251 215.089C238.265 203.096 236.762 191.024 232.838 179.646C228.915 168.268 222.658 157.835 214.469 149.015V149.015L201.593 150.775L184.469 189.015Z" fill="#575A89"/>
<path d="M136.469 178.015L131.469 176.015L108.469 174.015C108.469 174.015 100.469 172.015 102.469 168.015C104.469 164.015 106.469 163.015 102.469 162.015C98.4686 161.015 97.4686 160.015 98.4686 157.015C99.4686 154.015 105.469 148.015 105.469 148.015L88.4686 134.015C88.4686 134.015 87.5485 134.666 86.0613 135.87C77.6209 142.704 50.9141 167.359 70.4686 192.015C93.4686 221.015 120.469 238.015 142.469 232.015L136.469 178.015Z" fill="#575A89"/>
<path d="M158.469 258.015V272.015C158.469 272.015 149.469 289.015 152.469 305.015C155.469 321.015 156.469 329.015 156.469 329.015C156.795 342.623 159.154 356.105 163.469 369.015C170.469 389.015 147.469 520.015 176.469 522.015C205.469 524.015 221.469 526.015 230.469 516.015C239.469 506.015 215.469 334.015 215.469 334.015C215.469 334.015 297.469 505.015 314.469 498.015C331.469 491.015 374.469 475.015 369.469 466.015C364.469 457.015 238.469 257.015 238.469 257.015L234.469 248.015L158.469 258.015Z" fill="#D4213D"/>
<path d="M206.469 548.015C206.469 548.015 190.469 547.015 190.469 552.015C190.469 557.015 182.469 574.015 182.469 574.015C182.469 574.015 176.469 594.015 192.469 592.015C208.469 590.015 218.469 572.015 218.469 572.015L214.469 553.015L206.469 548.015Z" fill="#2F2E41"/>
<path d="M373.468 513.015C373.468 513.015 359.468 504.015 360.468 510.015C361.468 516.015 362.468 532.015 369.468 533.015C376.468 534.015 397.468 540.015 398.468 542.015C399.468 544.015 423.468 552.015 423.468 539.015C423.468 526.015 408.468 516.015 408.468 516.015L391.468 503.015C391.468 503.015 380.468 502.015 378.468 509.015C376.468 516.015 373.468 513.015 373.468 513.015Z" fill="#2F2E41"/>
<path d="M170.508 91.2582C179.678 91.2582 187.112 83.8245 187.112 74.6545C187.112 65.4845 179.678 58.0507 170.508 58.0507C161.338 58.0507 153.904 65.4845 153.904 74.6545C153.904 83.8245 161.338 91.2582 170.508 91.2582Z" fill="#2F2E41"/>
<path d="M152.157 70.285C152.157 66.1843 153.675 62.2288 156.418 59.1804C159.161 56.132 162.935 54.2064 167.013 53.7746C166.432 53.7131 165.849 53.682 165.265 53.6813C160.861 53.6813 156.638 55.4306 153.524 58.5444C150.41 61.6582 148.661 65.8815 148.661 70.285C148.661 74.6886 150.41 78.9119 153.524 82.0257C156.638 85.1395 160.861 86.8888 165.265 86.8888C165.849 86.8881 166.432 86.857 167.013 86.7955C162.935 86.3637 159.161 84.4381 156.418 81.3898C153.675 78.3414 152.157 74.3858 152.157 70.285V70.285Z" fill="#2F2E41"/>
<path d="M197.136 93.191L174.45 81.307L143.12 86.169L136.638 114.797L152.774 114.176L157.282 103.659V114.003L164.727 113.717L169.048 96.972L171.749 114.797L198.217 114.257L197.136 93.191Z" fill="#2F2E41"/>
<path d="M195.778 260.332L160.791 261.278C160.791 261.278 130.937 267.087 132.612 255.037C134.287 242.987 163.411 247.202 163.411 247.202L195.291 242.338L195.778 260.332Z" fill="#FBBEBE"/>
<path d="M223.46 147.32C225.218 147.054 227.014 147.424 228.524 148.364C230.034 149.304 231.159 150.752 231.696 152.448C238.545 174.032 259.647 246.261 238.681 256.171C213.988 267.842 195.967 267.329 195.967 267.329L186.322 243.581L195.102 235.341L204.477 175.066L208.969 149.515L223.46 147.32Z" fill="#575A89"/>
<path opacity="0.4" d="M216.969 187.515L212.969 227.515L177.969 242.515L216.969 233.515V187.515Z" fill="black"/>
<path d="M28.2143 55.4627C39.4874 58.4498 49.2408 65.5349 55.5668 75.3323L58.8376 80.398L59.0022 80.6075L116.387 97.3988C117.439 97.7067 118.328 98.4151 118.863 99.3717C119.398 100.328 119.537 101.457 119.248 102.514L114.793 118.849C114.648 119.381 114.399 119.879 114.061 120.315C113.722 120.75 113.301 121.115 112.821 121.387C112.342 121.659 111.813 121.833 111.265 121.9C110.718 121.967 110.163 121.925 109.631 121.777L52.232 105.733L52.2308 105.735L46.4659 107.914C35.8506 111.927 24.2072 112.323 13.344 109.04V109.04L28.2143 55.4627Z" fill="#3F3D56"/>
<path d="M88.647 102.836C89.1905 100.979 86.8078 98.6467 83.325 97.6276C79.8423 96.6086 76.5785 97.2882 76.035 99.1456C75.4915 101.003 77.8741 103.335 81.3568 104.354C84.8395 105.373 88.1035 104.693 88.647 102.836Z" fill="#575A89"/>
<path d="M85.716 104.549C87.0465 104.549 88.1252 103.47 88.1252 102.14C88.1252 100.809 87.0465 99.7306 85.716 99.7306C84.3855 99.7306 83.3068 100.809 83.3068 102.14C83.3068 103.47 84.3855 104.549 85.716 104.549Z" fill="#3F3D56"/>
<path d="M33.0117 86.4033C37.7969 71.6458 36.2662 57.9283 29.5927 55.7644C22.9192 53.6004 13.63 63.8095 8.84478 78.5669C4.05952 93.3244 5.59024 107.042 12.2637 109.206C18.9372 111.37 28.2264 101.161 33.0117 86.4033Z" fill="#D4213D"/>
<path opacity="0.4" d="M31.228 85.8814C35.8389 71.6616 34.5849 58.4092 28.5172 55.5263C28.8823 55.5719 29.2424 55.6515 29.5927 55.7643C36.2661 57.9283 37.7969 71.6458 33.0117 86.4033C28.2264 101.161 18.9373 111.37 12.2638 109.206C12.0219 109.127 11.7853 109.032 11.5557 108.922C18.12 109.758 26.6948 99.8616 31.228 85.8814Z" fill="black"/>
</svg>
