<svg width="886" height="120" viewBox="0 0 886 120" fill="none" xmlns="http://www.w3.org/2000/svg">
<path d="M38.24 49.2C41.84 56.8 46.4 63.44 51.92 69.12C57.44 74.8 62.92 78.48 68.36 80.16C68.36 83.52 67.48 86.12 65.72 87.96C63.96 89.8 61.44 90.72 58.16 90.72C53.92 90.72 49.08 88 43.64 82.56C38.2 77.04 33.44 70.56 29.36 63.12C25.36 55.6 23 49 22.28 43.32C28.04 43.32 32.76 41.8 36.44 38.76C40.2 35.64 42.08 31.24 42.08 25.56C42.08 18.36 37.6 14.76 28.64 14.76C25.76 14.76 22.24 15.24 18.08 16.2C17.52 27 17.24 35.72 17.24 42.36C17.24 63.64 18.08 79.04 19.76 88.56C17.2 89.52 14.48 90 11.6 90C8.72001 90 6.20001 89.08 4.04001 87.24C1.96001 85.4 0.920007 82.96 0.920007 79.92C0.920007 76.88 1.32001 71.6 2.12001 64.08C2.92001 56.48 3.32001 50.4 3.32001 45.84C3.32001 31.84 2.32001 19.4 0.320007 8.52C11.12 5.56 21.4 4.08 31.16 4.08C49 4.08 57.92 10.44 57.92 23.16C57.92 28.76 56 34.04 52.16 39C48.4 43.88 43.76 47.28 38.24 49.2Z" fill="#D4213D"/>
<path d="M90.1634 62.76C90.1634 68.52 91.0834 73.08 92.9234 76.44C94.7634 79.72 97.8434 81.36 102.163 81.36C106.483 81.36 109.843 79.92 112.243 77.04C114.723 74.08 115.963 70.52 115.963 66.36C118.683 66.36 121.043 67.04 123.043 68.4C125.043 69.76 126.043 71.64 126.043 74.04C126.043 79 123.403 83.16 118.123 86.52C112.843 89.8 107.283 91.44 101.443 91.44C92.3234 91.44 85.7234 89 81.6434 84.12C77.5634 79.16 75.5234 71.84 75.5234 62.16C75.5234 52.48 78.2434 44.36 83.6834 37.8C89.2034 31.16 96.5234 27.84 105.643 27.84C111.883 27.84 116.883 29.28 120.643 32.16C124.483 34.96 126.403 39.36 126.403 45.36C126.403 51.28 123.683 55.76 118.243 58.8C112.883 61.76 106.323 63.24 98.5634 63.24C95.8434 63.24 93.0434 63.08 90.1634 62.76ZM90.2834 53.28C92.6834 53.76 95.2034 54 97.8434 54C103.603 54 108.443 52.92 112.363 50.76C112.843 48.84 113.083 47.32 113.083 46.2C113.083 43.4 112.083 41.28 110.083 39.84C108.083 38.4 105.323 37.68 101.803 37.68C98.3634 37.68 95.2434 38.8 92.4434 41.04C91.0034 45.2 90.2834 49.28 90.2834 53.28Z" fill="#D4213D"/>
<path d="M182.123 40.68C177.883 39.4 173.683 38.76 169.523 38.76C165.363 38.76 161.443 40 157.763 42.48C154.883 48.24 153.443 54.36 153.443 60.84C153.443 64.6 153.963 68.28 155.003 71.88C156.043 75.4 157.763 77.16 160.163 77.16C162.883 77.16 166.523 73.28 171.083 65.52C175.643 57.76 179.323 49.48 182.123 40.68ZM164.123 109.68C169.243 109.68 173.243 107.92 176.123 104.4C179.003 100.88 180.443 96.36 180.443 90.84C180.443 88.12 180.243 84.16 179.843 78.96C179.523 73.76 179.323 70.08 179.243 67.92C173.563 77.84 168.603 83.92 164.363 86.16C162.203 87.28 159.923 87.84 157.523 87.84C151.523 87.84 146.883 85.48 143.603 80.76C140.323 76.04 138.683 70.28 138.683 63.48C138.683 54.2 141.563 46.08 147.323 39.12C153.163 32.08 160.523 28.56 169.403 28.56C178.363 28.56 187.403 30.12 196.523 33.24C194.123 41.8 192.923 50.2 192.923 58.44C192.923 62.36 193.203 67.24 193.763 73.08C194.323 78.84 194.603 83.12 194.603 85.92C194.603 95.76 191.483 103.88 185.243 110.28C179.003 116.76 171.003 120 161.243 120C155.483 120 150.523 118.88 146.363 116.64C142.283 114.48 140.243 111.08 140.243 106.44C140.243 103.56 141.323 101.12 143.483 99.12C145.643 97.12 148.203 96.12 151.163 96.12C151.803 96.12 152.603 96.2 153.563 96.36C153.323 97.4 153.203 98.32 153.203 99.12C153.203 102 154.283 104.48 156.443 106.56C158.603 108.64 161.163 109.68 164.123 109.68Z" fill="#D4213D"/>
<path d="M211.614 30.36C214.174 29.64 216.734 29.28 219.294 29.28C221.934 29.28 224.174 30.08 226.014 31.68C227.854 33.28 228.774 35.36 228.774 37.92C228.774 40.4 228.334 44.76 227.454 51C226.654 57.16 226.254 61.96 226.254 65.4C226.254 74.36 227.094 82.08 228.774 88.56C226.294 89.52 223.614 90 220.734 90C217.854 90 215.574 89.36 213.894 88.08C212.214 86.72 211.374 84.8 211.374 82.32C211.374 79.76 211.854 75.6 212.814 69.84C213.774 64.08 214.254 59.32 214.254 55.56C214.254 45.56 213.374 37.16 211.614 30.36ZM213.174 3.24C215.974 1.96 218.734 1.32 221.454 1.32C224.174 1.32 226.174 2.04 227.454 3.48001C228.814 4.84 229.494 6.88 229.494 9.60001C229.494 12.32 228.574 14.72 226.734 16.8C224.974 18.88 222.654 19.92 219.774 19.92C213.854 19.92 210.894 16.84 210.894 10.68C210.894 7.96 211.654 5.48 213.174 3.24Z" fill="#D4213D"/>
<path d="M267.16 91.44C258.36 91.44 251.88 88.88 247.72 83.76C243.56 78.56 241.48 71.36 241.48 62.16C241.48 52.88 244.24 44.84 249.76 38.04C255.28 31.24 262.36 27.84 271 27.84C288.76 27.84 297.64 37.84 297.64 57.84C297.64 67.2 294.76 75.16 289 81.72C283.24 88.2 275.96 91.44 267.16 91.44ZM258.52 41.04C257.08 45.68 256.36 50.32 256.36 54.96C256.36 59.6 256.52 63.2 256.84 65.76C257.16 68.32 257.76 70.88 258.64 73.44C260.48 78.64 264.08 81.24 269.44 81.24C274.88 81.24 278.44 79.8 280.12 76.92C281.88 74.04 282.76 69.6 282.76 63.6C282.76 46.56 278.72 38.04 270.64 38.04C266 38.04 261.96 39.04 258.52 41.04Z" fill="#D4213D"/>
<path d="M366.598 41.52L365.398 67.92C365.398 75.2 366.518 82.32 368.758 89.28C366.518 90.24 363.958 90.72 361.078 90.72C354.278 90.72 350.878 86.92 350.878 79.32C350.878 75.88 351.318 70.12 352.198 62.04C353.078 53.88 353.518 48.76 353.518 46.68C353.518 42.68 351.718 40.68 348.118 40.68C345.478 40.68 342.477 42.6 339.117 46.44C335.837 50.2 332.998 54.44 330.598 59.16C328.278 63.8 326.918 67.64 326.518 70.68C326.838 76.92 327.638 82.88 328.918 88.56C326.358 89.52 323.678 90 320.878 90C318.158 90 315.918 89.36 314.158 88.08C312.478 86.72 311.638 84.88 311.638 82.56C311.638 80.16 311.997 75.92 312.717 69.84C313.437 63.68 313.798 57.6 313.798 51.6C313.798 45.52 312.878 38.56 311.038 30.72C313.598 29.76 316.318 29.28 319.198 29.28C322.078 29.28 324.398 30.12 326.158 31.8C327.998 33.48 328.918 35.56 328.918 38.04C328.918 40.52 328.598 44.48 327.958 49.92C330.998 44.24 334.957 39.28 339.837 35.04C344.717 30.72 349.598 28.56 354.478 28.56C362.558 28.56 366.598 32.88 366.598 41.52Z" fill="#D4213D"/>
<path d="M439.43 33.48C437.27 42.68 436.19 51.92 436.19 61.2C436.19 70.4 437.23 79.52 439.31 88.56C436.43 89.52 433.47 90 430.43 90C427.39 90 425.27 89.12 424.07 87.36C422.87 85.52 422.27 82.92 422.27 79.56C422.27 76.12 422.79 71.44 423.83 65.52C418.15 77.68 412.67 85.36 407.39 88.56C404.99 90 402.51 90.72 399.95 90.72C393.87 90.72 389.15 88.48 385.79 84C382.43 79.44 380.75 73.8 380.75 67.08C380.75 56.84 383.59 47.88 389.27 40.2C394.95 32.44 402.31 28.56 411.35 28.56C420.47 28.56 429.83 30.2 439.43 33.48ZM423.71 40.68C419.47 39.4 415.87 38.76 412.91 38.76C406.91 38.76 402.43 40.08 399.47 42.72C396.75 49.44 395.39 56.28 395.39 63.24C395.39 66.92 395.95 70.64 397.07 74.4C398.27 78.16 400.07 80.04 402.47 80.04C405.27 80.04 408.87 75.92 413.27 67.68C417.67 59.44 421.15 50.44 423.71 40.68Z" fill="#D4213D"/>
<path d="M454.901 1.44C457.461 0.480001 460.101 0 462.821 0C465.541 0 467.781 0.92 469.541 2.76C471.381 4.52 472.301 6.96 472.301 10.08C472.301 13.12 471.861 19.28 470.981 28.56C470.181 37.76 469.781 45 469.781 50.28C469.781 63.32 470.701 76.08 472.541 88.56C469.981 89.52 467.261 90 464.381 90C458.221 90 455.141 87 455.141 81C455.141 78.12 455.581 72.48 456.461 64.08C457.341 55.6 457.781 48.8 457.781 43.68C457.781 26.64 456.821 12.56 454.901 1.44Z" fill="#D4213D"/>
<path d="M489.887 30.36C492.447 29.64 495.007 29.28 497.567 29.28C500.207 29.28 502.447 30.08 504.287 31.68C506.127 33.28 507.047 35.36 507.047 37.92C507.047 40.4 506.607 44.76 505.727 51C504.927 57.16 504.527 61.96 504.527 65.4C504.527 74.36 505.367 82.08 507.047 88.56C504.567 89.52 501.887 90 499.007 90C496.127 90 493.847 89.36 492.167 88.08C490.487 86.72 489.647 84.8 489.647 82.32C489.647 79.76 490.127 75.6 491.087 69.84C492.047 64.08 492.527 59.32 492.527 55.56C492.527 45.56 491.647 37.16 489.887 30.36ZM491.447 3.24C494.247 1.96 497.007 1.32 499.727 1.32C502.447 1.32 504.447 2.04 505.727 3.48001C507.087 4.84 507.767 6.88 507.767 9.60001C507.767 12.32 506.847 14.72 505.007 16.8C503.247 18.88 500.927 19.92 498.047 19.92C492.127 19.92 489.167 16.84 489.167 10.68C489.167 7.96 489.927 5.48 491.447 3.24Z" fill="#D4213D"/>
<path d="M541.953 30L559.833 29.64C562.633 29.64 564.673 30.2 565.953 31.32C567.233 32.44 567.873 34.2 567.873 36.6C567.873 38.92 566.513 41.72 563.793 45C561.153 48.28 558.073 51.48 554.553 54.6C551.113 57.64 547.513 61.32 543.753 65.64C540.073 69.96 537.433 73.92 535.833 77.52C538.713 78 542.193 78.24 546.273 78.24C555.393 78.24 562.073 77 566.313 74.52C567.353 76.6 567.873 78.96 567.873 81.6C567.873 84.24 566.953 86.44 565.113 88.2C563.273 89.88 560.993 90.72 558.273 90.72C555.633 90.72 551.593 90.44 546.153 89.88C540.793 89.24 536.633 88.92 533.673 88.92C530.713 88.92 526.353 89.28 520.593 90C519.633 88.4 519.153 86.52 519.153 84.36C519.153 80.76 521.553 76.04 526.353 70.2C531.153 64.28 536.513 58.32 542.433 52.32C548.353 46.24 551.993 41.88 553.353 39.24C552.153 39.48 550.233 39.92 547.593 40.56C544.953 41.12 542.873 41.56 541.353 41.88C537.353 42.76 533.673 43.2 530.313 43.2C526.953 43.2 524.353 42.48 522.513 41.04C520.753 39.52 519.873 37.4 519.873 34.68C519.873 31.88 520.393 29.72 521.433 28.2C526.553 29.4 533.393 30 541.953 30Z" fill="#D4213D"/>
<path d="M671.842 41.52L670.642 67.2C670.642 74.96 671.762 82.32 674.002 89.28C671.762 90.24 669.202 90.72 666.322 90.72C659.522 90.72 656.122 86.92 656.122 79.32C656.122 75.88 656.562 70.12 657.442 62.04C658.322 53.88 658.762 48.76 658.762 46.68C658.762 42.68 657.122 40.68 653.842 40.68C650.242 40.68 645.922 44.36 640.882 51.72C635.922 59.08 633.442 64.84 633.442 69C633.842 75.32 634.962 81.6 636.802 87.84C633.762 88.8 631.202 89.28 629.122 89.28C622.322 89.28 618.922 85.48 618.922 77.88C618.922 74.68 619.362 69.32 620.242 61.8C621.122 54.28 621.562 49.56 621.562 47.64C621.562 43.64 619.762 41.64 616.162 41.64C613.682 41.64 610.842 43.48 607.642 47.16C604.442 50.84 601.722 54.92 599.482 59.4C597.322 63.8 596.162 67.32 596.002 69.96C596.402 76.84 597.202 83.04 598.402 88.56C595.842 89.52 593.162 90 590.362 90C587.642 90 585.402 89.36 583.642 88.08C581.962 86.72 581.122 84.88 581.122 82.56C581.122 80.16 581.482 75.92 582.202 69.84C582.922 63.68 583.282 57.6 583.282 51.6C583.282 45.52 582.362 38.56 580.522 30.72C583.082 29.76 585.802 29.28 588.682 29.28C591.562 29.28 593.882 30.12 595.642 31.8C597.482 33.48 598.402 35.72 598.402 38.52C598.402 39.96 598.122 43.48 597.562 49.08C600.522 43.8 604.282 39.24 608.842 35.4C613.402 31.48 617.962 29.52 622.522 29.52C630.602 29.52 634.642 33.84 634.642 42.48C634.642 44.64 634.522 47.04 634.282 49.68C637.242 44.08 641.042 39.16 645.682 34.92C650.402 30.68 655.082 28.56 659.722 28.56C667.802 28.56 671.842 32.88 671.842 41.52Z" fill="#D4213D"/>
<path d="M691.137 70.08L692.337 52.8C692.337 45.04 691.217 37.68 688.977 30.72C691.217 29.76 693.977 29.28 697.257 29.28C703.657 29.28 706.857 32.84 706.857 39.96C706.857 43.16 706.417 47.68 705.537 53.52C704.657 59.36 704.217 63.4 704.217 65.64C704.217 67.8 704.257 69.4 704.337 70.44C704.417 71.4 704.617 72.56 704.937 73.92C705.417 76.64 706.977 78 709.617 78C712.337 78 715.217 75.88 718.257 71.64C721.377 67.32 723.857 62.56 725.697 57.36C727.617 52.16 728.577 48.04 728.577 45C728.177 38.68 727.497 33.92 726.537 30.72C729.097 29.76 731.697 29.28 734.337 29.28C737.057 29.28 739.297 30.12 741.057 31.8C742.897 33.48 743.817 35.72 743.817 38.52C743.817 82.2 735.817 108.4 719.817 117.12C716.217 119.04 712.137 120 707.577 120C703.017 120 699.017 118.8 695.577 116.4C692.217 114 690.537 110.64 690.537 106.32C690.537 103.44 691.617 101 693.777 99C695.937 97.08 698.497 96.12 701.457 96.12C702.097 96.12 702.897 96.2 703.857 96.36C703.617 97.4 703.497 98.32 703.497 99.12C703.497 106.16 705.937 109.68 710.817 109.68C713.777 109.68 716.457 108.08 718.857 104.88C721.257 101.68 723.177 97.76 724.617 93.12C727.417 83.68 728.817 75.12 728.817 67.44C726.417 73.92 723.137 79.16 718.977 83.16C714.897 87.08 710.457 89.04 705.657 89.04C695.977 89.04 691.137 82.72 691.137 70.08Z" fill="#D4213D"/>
<path d="M761.548 73.92C764.108 72.56 766.708 71.88 769.348 71.88C775.268 71.88 778.228 74.64 778.228 80.16C778.228 83.12 777.228 85.64 775.228 87.72C773.228 89.72 770.828 90.72 768.028 90.72C765.228 90.72 763.068 89.92 761.548 88.32C760.108 86.72 759.388 84.56 759.388 81.84C759.388 79.04 760.108 76.4 761.548 73.92Z" fill="#D4213D"/>
<path d="M809.528 78.24C812.808 79.44 816.608 80.04 820.928 80.04C825.248 80.04 829.048 79.2 832.328 77.52C836.248 70.8 838.208 62.76 838.208 53.4C838.208 43.96 836.568 39.24 833.288 39.24C829.208 39.24 824.608 43.36 819.488 51.6C814.448 59.84 811.128 68.72 809.528 78.24ZM809.528 53.64C818.008 36.92 827.408 28.56 837.728 28.56C843.168 28.56 847.048 30.8 849.368 35.28C851.768 39.68 852.968 45.28 852.968 52.08C852.968 61.84 850.088 70.72 844.328 78.72C838.568 86.72 831.328 90.72 822.608 90.72C817.648 90.72 813.128 89.92 809.048 88.32C809.208 99.28 809.888 109.32 811.088 118.44C808.528 119.4 805.888 119.88 803.168 119.88C800.448 119.88 798.208 118.96 796.448 117.12C794.688 115.36 793.808 112.64 793.808 108.96C793.808 105.28 794.288 99 795.248 90.12C796.208 81.24 796.688 74.28 796.688 69.24C796.688 52.6 795.808 39.76 794.048 30.72C796.608 29.76 799.288 29.28 802.088 29.28C804.968 29.28 807.168 30.12 808.688 31.8C810.288 33.4 811.088 35.96 811.088 39.48C811.088 42.92 810.568 47.64 809.528 53.64Z" fill="#D4213D"/>
<path d="M867.757 1.44C870.317 0.480001 872.957 0 875.677 0C878.397 0 880.637 0.92 882.397 2.76C884.237 4.52 885.157 6.96 885.157 10.08C885.157 13.12 884.717 19.28 883.837 28.56C883.037 37.76 882.637 45 882.637 50.28C882.637 63.32 883.557 76.08 885.397 88.56C882.837 89.52 880.117 90 877.237 90C871.077 90 867.997 87 867.997 81C867.997 78.12 868.437 72.48 869.317 64.08C870.197 55.6 870.637 48.8 870.637 43.68C870.637 26.64 869.677 12.56 867.757 1.44Z" fill="#D4213D"/>
<path d="M454.901 1.44C457.461 0.480001 460.101 0 462.821 0C465.541 0 467.781 0.92 469.541 2.76C471.381 4.52 472.301 6.96 472.301 10.08C472.301 13.12 471.861 19.28 470.981 28.56C470.181 37.76 469.781 45 469.781 50.28C469.781 53.5375 469.838 56.7775 469.953 60H456.862C457.474 53.391 457.781 47.951 457.781 43.68C457.781 26.64 456.821 12.56 454.901 1.44Z" fill="#E9E8E7"/>
<path d="M436.196 60C436.285 51.1234 437.363 42.2834 439.43 33.48C429.83 30.2 420.47 28.56 411.35 28.56C402.31 28.56 394.95 32.44 389.27 40.2C384.939 46.0558 382.259 52.6558 381.231 60H395.489C395.846 54.1544 397.173 48.3944 399.47 42.72C402.43 40.08 406.91 38.76 412.91 38.76C415.87 38.76 419.47 39.4 423.71 40.68C421.924 47.49 419.69 53.93 417.008 60H436.196Z" fill="#E9E8E7"/>
<path d="M365.758 60L366.598 41.52C366.598 32.88 362.557 28.56 354.478 28.56C349.598 28.56 344.717 30.72 339.837 35.04C334.957 39.28 330.998 44.24 327.958 49.92C328.598 44.48 328.918 40.52 328.918 38.04C328.918 35.56 327.997 33.48 326.158 31.8C324.397 30.12 322.078 29.28 319.198 29.28C316.318 29.28 313.598 29.76 311.038 30.72C312.878 38.56 313.798 45.52 313.798 51.6C313.798 54.3828 313.72 57.1828 313.565 60H330.184C330.318 59.723 330.456 59.443 330.598 59.16C332.997 54.44 335.837 50.2 339.117 46.44C342.478 42.6 345.478 40.68 348.118 40.68C351.718 40.68 353.518 42.68 353.518 46.68C353.518 48.5809 353.15 53.0209 352.415 60H365.758Z" fill="#E9E8E7"/>
<path d="M297.587 60C297.622 59.2885 297.64 58.5685 297.64 57.84C297.64 37.84 288.76 27.84 271 27.84C262.36 27.84 255.28 31.24 249.76 38.04C244.673 44.3068 241.929 51.6268 241.531 60H256.436C256.385 58.4843 256.36 56.8043 256.36 54.96C256.36 50.32 257.08 45.68 258.52 41.04C261.96 39.04 266 38.04 270.64 38.04C278.129 38.04 282.148 45.36 282.695 60H297.587Z" fill="#E9E8E7"/>
<path d="M226.491 60C226.689 57.419 227.01 54.419 227.454 51C228.334 44.76 228.774 40.4 228.774 37.92C228.774 35.36 227.854 33.28 226.014 31.68C224.174 30.08 221.934 29.28 219.294 29.28C216.734 29.28 214.174 29.64 211.614 30.36C213.374 37.16 214.254 45.56 214.254 55.56C214.254 56.9109 214.192 58.3909 214.068 60H226.491Z" fill="#E9E8E7"/>
<path d="M192.937 60C192.927 59.4641 192.923 58.9441 192.923 58.44C192.923 50.2 194.123 41.8 196.523 33.24C187.403 30.12 178.363 28.56 169.403 28.56C160.523 28.56 153.163 32.08 147.323 39.12C142.294 45.196 139.461 52.156 138.822 60H153.451C153.57 53.8305 155.008 47.9905 157.763 42.48C161.443 40 165.363 38.76 169.523 38.76C173.683 38.76 177.883 39.4 182.123 40.68C179.977 47.4255 177.313 53.8655 174.133 60H192.937Z" fill="#E9E8E7"/>
<path fill-rule="evenodd" clip-rule="evenodd" d="M115.823 60C116.655 59.6315 117.462 59.2314 118.243 58.8C123.683 55.76 126.403 51.28 126.403 45.36C126.403 39.36 124.483 34.96 120.643 32.16C116.883 29.28 111.883 27.84 105.643 27.84C96.5234 27.84 89.2034 31.16 83.6834 37.8C78.653 43.8661 75.9485 51.2661 75.5697 60H115.823ZM90.2834 53.28C92.6834 53.76 95.2034 54 97.8434 54C103.603 54 108.443 52.92 112.363 50.76C112.843 48.84 113.083 47.32 113.083 46.2C113.083 43.4 112.083 41.28 110.083 39.84C108.083 38.4 105.323 37.68 101.803 37.68C98.3634 37.68 95.2434 38.8 92.4434 41.04C91.0034 45.2 90.2834 49.28 90.2834 53.28Z" fill="#E9E8E7"/>
<path d="M44.4426 60C42.1292 56.6458 40.0617 53.0458 38.24 49.2C43.76 47.28 48.4 43.88 52.16 39C56 34.04 57.92 28.76 57.92 23.16C57.92 10.44 49 4.08 31.16 4.08C21.4 4.08 11.12 5.56 0.320007 8.52C2.32001 19.4 3.32001 31.84 3.32001 45.84C3.32001 49.5525 3.05487 54.2725 2.52461 60H17.469C17.3163 54.6542 17.24 48.7742 17.24 42.36C17.24 35.72 17.52 27 18.08 16.2C22.24 15.24 25.76 14.76 28.64 14.76C37.6 14.76 42.08 18.36 42.08 25.56C42.08 31.24 40.2 35.64 36.44 38.76C32.76 41.8 28.04 43.32 22.28 43.32C22.8987 48.2007 24.7283 53.7607 27.7688 60H44.4426Z" fill="#E9E8E7"/>
<path d="M882.809 60C882.694 56.7775 882.637 53.5375 882.637 50.28C882.637 45 883.037 37.76 883.837 28.56C884.717 19.28 885.157 13.12 885.157 10.08C885.157 6.96 884.237 4.52 882.397 2.76C880.637 0.92 878.397 0 875.677 0C872.957 0 870.317 0.480001 867.757 1.44C869.677 12.56 870.637 26.64 870.637 43.68C870.637 47.951 870.331 53.391 869.718 60H882.809Z" fill="#E9E8E7"/>
<path d="M852.303 60C852.746 57.4277 852.968 54.7877 852.968 52.08C852.968 45.28 851.768 39.68 849.368 35.28C847.048 30.8 843.168 28.56 837.728 28.56C827.408 28.56 818.008 36.92 809.528 53.64C810.568 47.64 811.088 42.92 811.088 39.48C811.088 35.96 810.288 33.4 808.688 31.8C807.168 30.12 804.968 29.28 802.088 29.28C799.288 29.28 796.608 29.76 794.048 30.72C795.467 38.0093 796.314 47.7693 796.589 60H815.045C816.337 57.1298 817.818 54.3298 819.488 51.6C824.608 43.36 829.208 39.24 833.288 39.24C836.568 39.24 838.208 43.96 838.208 53.4C838.208 55.6782 838.092 57.8782 837.859 60H852.303Z" fill="#E9E8E7"/>
<path d="M743.07 60C743.568 53.3837 743.817 46.2237 743.817 38.52C743.817 35.72 742.897 33.48 741.057 31.8C739.297 30.12 737.057 29.28 734.337 29.28C731.697 29.28 729.097 29.76 726.537 30.72C727.497 33.92 728.177 38.68 728.577 45C728.577 48.04 727.617 52.16 725.697 57.36C725.381 58.253 725.046 59.133 724.692 60H743.07Z" fill="#E9E8E7"/>
<path d="M704.652 60C704.867 58.1662 705.162 56.0062 705.537 53.52C706.417 47.68 706.857 43.16 706.857 39.96C706.857 32.84 703.657 29.28 697.257 29.28C693.977 29.28 691.217 29.76 688.977 30.72C691.217 37.68 692.337 45.04 692.337 52.8L691.837 60H704.652Z" fill="#E9E8E7"/>
<path d="M670.978 60L671.842 41.52C671.842 32.88 667.802 28.56 659.722 28.56C655.082 28.56 650.402 30.68 645.682 34.92C641.042 39.16 637.242 44.08 634.282 49.68C634.522 47.04 634.642 44.64 634.642 42.48C634.642 33.84 630.602 29.52 622.522 29.52C617.962 29.52 613.402 31.48 608.842 35.4C604.282 39.24 600.522 43.8 597.562 49.08C598.122 43.48 598.402 39.96 598.402 38.52C598.402 35.72 597.482 33.48 595.642 31.8C593.882 30.12 591.562 29.28 588.682 29.28C585.802 29.28 583.082 29.76 580.522 30.72C582.362 38.56 583.282 45.52 583.282 51.6C583.282 54.3828 583.204 57.1828 583.05 60H599.191C599.286 59.8019 599.383 59.6019 599.482 59.4C601.722 54.92 604.442 50.84 607.642 47.16C610.842 43.48 613.682 41.64 616.162 41.64C619.762 41.64 621.562 43.64 621.562 47.64C621.562 49.402 621.191 53.522 620.45 60H636.015C637.217 57.5114 638.839 54.7514 640.882 51.72C645.922 44.36 650.242 40.68 653.842 40.68C657.122 40.68 658.762 42.68 658.762 46.68C658.762 48.5809 658.394 53.0209 657.659 60H670.978Z" fill="#E9E8E7"/>
<path d="M548.922 60C550.845 58.0186 552.722 56.2186 554.553 54.6C558.073 51.48 561.153 48.28 563.793 45C566.513 41.72 567.873 38.92 567.873 36.6C567.873 34.2 567.233 32.44 565.953 31.32C564.673 30.2 562.633 29.64 559.833 29.64L541.953 30C533.393 30 526.553 29.4 521.433 28.2C520.393 29.72 519.873 31.88 519.873 34.68C519.873 37.4 520.753 39.52 522.513 41.04C524.353 42.48 526.953 43.2 530.313 43.2C533.673 43.2 537.353 42.76 541.353 41.88C542.873 41.56 544.953 41.12 547.593 40.56C550.233 39.92 552.153 39.48 553.353 39.24C551.993 41.88 548.353 46.24 542.433 52.32C539.9 54.8873 537.47 57.4473 535.141 60H548.922Z" fill="#E9E8E7"/>
<path d="M504.765 60C504.962 57.419 505.283 54.419 505.727 51C506.607 44.76 507.047 40.4 507.047 37.92C507.047 35.36 506.127 33.28 504.287 31.68C502.447 30.08 500.207 29.28 497.567 29.28C495.007 29.28 492.447 29.64 489.887 30.36C491.647 37.16 492.527 45.56 492.527 55.56C492.527 56.9109 492.465 58.3909 492.341 60H504.765Z" fill="#E9E8E7"/>
<path d="M213.174 3.24C215.974 1.96 218.734 1.32 221.454 1.32C224.174 1.32 226.174 2.04 227.454 3.48001C228.814 4.84 229.494 6.88 229.494 9.60001C229.494 12.32 228.574 14.72 226.734 16.8C224.974 18.88 222.654 19.92 219.774 19.92C213.854 19.92 210.894 16.84 210.894 10.68C210.894 7.96 211.654 5.48 213.174 3.24Z" fill="#E9E8E7"/>
<path d="M499.727 1.32C497.007 1.32 494.247 1.96 491.447 3.24C489.927 5.48 489.167 7.96 489.167 10.68C489.167 16.84 492.127 19.92 498.047 19.92C500.927 19.92 503.247 18.88 505.007 16.8C506.847 14.72 507.767 12.32 507.767 9.60001C507.767 6.88 507.087 4.84 505.727 3.48001C504.447 2.04 502.447 1.32 499.727 1.32Z" fill="#E9E8E7"/>
</svg>
