<svg width="895" height="128" viewBox="0 0 895 128" fill="none" xmlns="http://www.w3.org/2000/svg">
<mask id="path-1-outside-1" maskUnits="userSpaceOnUse" x="0.320007" y="0" width="895" height="128" fill="black">
<rect fill="white" x="0.320007" width="895" height="128"/>
<path d="M43.24 53.2C46.84 60.8 51.4 67.44 56.92 73.12C62.44 78.8 67.92 82.48 73.36 84.16C73.36 87.52 72.48 90.12 70.72 91.96C68.96 93.8 66.44 94.72 63.16 94.72C58.92 94.72 54.08 92 48.64 86.56C43.2 81.04 38.44 74.56 34.36 67.12C30.36 59.6 28 53 27.28 47.32C33.04 47.32 37.76 45.8 41.44 42.76C45.2 39.64 47.08 35.24 47.08 29.56C47.08 22.36 42.6 18.76 33.64 18.76C30.76 18.76 27.24 19.24 23.08 20.2C22.52 31 22.24 39.72 22.24 46.36C22.24 67.64 23.08 83.04 24.76 92.56C22.2 93.52 19.48 94 16.6 94C13.72 94 11.2 93.08 9.04001 91.24C6.96001 89.4 5.92001 86.96 5.92001 83.92C5.92001 80.88 6.32001 75.6 7.12001 68.08C7.92001 60.48 8.32001 54.4 8.32001 49.84C8.32001 35.84 7.32001 23.4 5.32001 12.52C16.12 9.56 26.4 8.08 36.16 8.08C54 8.08 62.92 14.44 62.92 27.16C62.92 32.76 61 38.04 57.16 43C53.4 47.88 48.76 51.28 43.24 53.2Z"/>
<path d="M95.1634 66.76C95.1634 72.52 96.0834 77.08 97.9234 80.44C99.7634 83.72 102.843 85.36 107.163 85.36C111.483 85.36 114.843 83.92 117.243 81.04C119.723 78.08 120.963 74.52 120.963 70.36C123.683 70.36 126.043 71.04 128.043 72.4C130.043 73.76 131.043 75.64 131.043 78.04C131.043 83 128.403 87.16 123.123 90.52C117.843 93.8 112.283 95.44 106.443 95.44C97.3234 95.44 90.7234 93 86.6434 88.12C82.5634 83.16 80.5234 75.84 80.5234 66.16C80.5234 56.48 83.2434 48.36 88.6834 41.8C94.2034 35.16 101.523 31.84 110.643 31.84C116.883 31.84 121.883 33.28 125.643 36.16C129.483 38.96 131.403 43.36 131.403 49.36C131.403 55.28 128.683 59.76 123.243 62.8C117.883 65.76 111.323 67.24 103.563 67.24C100.843 67.24 98.0434 67.08 95.1634 66.76ZM95.2834 57.28C97.6834 57.76 100.203 58 102.843 58C108.603 58 113.443 56.92 117.363 54.76C117.843 52.84 118.083 51.32 118.083 50.2C118.083 47.4 117.083 45.28 115.083 43.84C113.083 42.4 110.323 41.68 106.803 41.68C103.363 41.68 100.243 42.8 97.4434 45.04C96.0034 49.2 95.2834 53.28 95.2834 57.28Z"/>
<path d="M187.123 44.68C182.883 43.4 178.683 42.76 174.523 42.76C170.363 42.76 166.443 44 162.763 46.48C159.883 52.24 158.443 58.36 158.443 64.84C158.443 68.6 158.963 72.28 160.003 75.88C161.043 79.4 162.763 81.16 165.163 81.16C167.883 81.16 171.523 77.28 176.083 69.52C180.643 61.76 184.323 53.48 187.123 44.68ZM169.123 113.68C174.243 113.68 178.243 111.92 181.123 108.4C184.003 104.88 185.443 100.36 185.443 94.84C185.443 92.12 185.243 88.16 184.843 82.96C184.523 77.76 184.323 74.08 184.243 71.92C178.563 81.84 173.603 87.92 169.363 90.16C167.203 91.28 164.923 91.84 162.523 91.84C156.523 91.84 151.883 89.48 148.603 84.76C145.323 80.04 143.683 74.28 143.683 67.48C143.683 58.2 146.563 50.08 152.323 43.12C158.163 36.08 165.523 32.56 174.403 32.56C183.363 32.56 192.403 34.12 201.523 37.24C199.123 45.8 197.923 54.2 197.923 62.44C197.923 66.36 198.203 71.24 198.763 77.08C199.323 82.84 199.603 87.12 199.603 89.92C199.603 99.76 196.483 107.88 190.243 114.28C184.003 120.76 176.003 124 166.243 124C160.483 124 155.523 122.88 151.363 120.64C147.283 118.48 145.243 115.08 145.243 110.44C145.243 107.56 146.323 105.12 148.483 103.12C150.643 101.12 153.203 100.12 156.163 100.12C156.803 100.12 157.603 100.2 158.563 100.36C158.323 101.4 158.203 102.32 158.203 103.12C158.203 106 159.283 108.48 161.443 110.56C163.603 112.64 166.163 113.68 169.123 113.68Z"/>
<path d="M216.614 34.36C219.174 33.64 221.734 33.28 224.294 33.28C226.934 33.28 229.174 34.08 231.014 35.68C232.854 37.28 233.774 39.36 233.774 41.92C233.774 44.4 233.334 48.76 232.454 55C231.654 61.16 231.254 65.96 231.254 69.4C231.254 78.36 232.094 86.08 233.774 92.56C231.294 93.52 228.614 94 225.734 94C222.854 94 220.574 93.36 218.894 92.08C217.214 90.72 216.374 88.8 216.374 86.32C216.374 83.76 216.854 79.6 217.814 73.84C218.774 68.08 219.254 63.32 219.254 59.56C219.254 49.56 218.374 41.16 216.614 34.36ZM218.174 7.24C220.974 5.96 223.734 5.32 226.454 5.32C229.174 5.32 231.174 6.04 232.454 7.48001C233.814 8.84 234.494 10.88 234.494 13.6C234.494 16.32 233.574 18.72 231.734 20.8C229.974 22.88 227.654 23.92 224.774 23.92C218.854 23.92 215.894 20.84 215.894 14.68C215.894 11.96 216.654 9.48 218.174 7.24Z"/>
<path d="M272.16 95.44C263.36 95.44 256.88 92.88 252.72 87.76C248.56 82.56 246.48 75.36 246.48 66.16C246.48 56.88 249.24 48.84 254.76 42.04C260.28 35.24 267.36 31.84 276 31.84C293.76 31.84 302.64 41.84 302.64 61.84C302.64 71.2 299.76 79.16 294 85.72C288.24 92.2 280.96 95.44 272.16 95.44ZM263.52 45.04C262.08 49.68 261.36 54.32 261.36 58.96C261.36 63.6 261.52 67.2 261.84 69.76C262.16 72.32 262.76 74.88 263.64 77.44C265.48 82.64 269.08 85.24 274.44 85.24C279.88 85.24 283.44 83.8 285.12 80.92C286.88 78.04 287.76 73.6 287.76 67.6C287.76 50.56 283.72 42.04 275.64 42.04C271 42.04 266.96 43.04 263.52 45.04Z"/>
<path d="M371.598 45.52L370.398 71.92C370.398 79.2 371.518 86.32 373.758 93.28C371.518 94.24 368.958 94.72 366.078 94.72C359.278 94.72 355.878 90.92 355.878 83.32C355.878 79.88 356.318 74.12 357.198 66.04C358.078 57.88 358.518 52.76 358.518 50.68C358.518 46.68 356.718 44.68 353.118 44.68C350.478 44.68 347.477 46.6 344.117 50.44C340.837 54.2 337.998 58.44 335.598 63.16C333.278 67.8 331.918 71.64 331.518 74.68C331.838 80.92 332.638 86.88 333.918 92.56C331.358 93.52 328.678 94 325.878 94C323.158 94 320.918 93.36 319.158 92.08C317.478 90.72 316.638 88.88 316.638 86.56C316.638 84.16 316.997 79.92 317.717 73.84C318.437 67.68 318.798 61.6 318.798 55.6C318.798 49.52 317.878 42.56 316.038 34.72C318.598 33.76 321.318 33.28 324.198 33.28C327.078 33.28 329.398 34.12 331.158 35.8C332.998 37.48 333.918 39.56 333.918 42.04C333.918 44.52 333.598 48.48 332.958 53.92C335.998 48.24 339.957 43.28 344.837 39.04C349.717 34.72 354.598 32.56 359.478 32.56C367.558 32.56 371.598 36.88 371.598 45.52Z"/>
<path d="M444.43 37.48C442.27 46.68 441.19 55.92 441.19 65.2C441.19 74.4 442.23 83.52 444.31 92.56C441.43 93.52 438.47 94 435.43 94C432.39 94 430.27 93.12 429.07 91.36C427.87 89.52 427.27 86.92 427.27 83.56C427.27 80.12 427.79 75.44 428.83 69.52C423.15 81.68 417.67 89.36 412.39 92.56C409.99 94 407.51 94.72 404.95 94.72C398.87 94.72 394.15 92.48 390.79 88C387.43 83.44 385.75 77.8 385.75 71.08C385.75 60.84 388.59 51.88 394.27 44.2C399.95 36.44 407.31 32.56 416.35 32.56C425.47 32.56 434.83 34.2 444.43 37.48ZM428.71 44.68C424.47 43.4 420.87 42.76 417.91 42.76C411.91 42.76 407.43 44.08 404.47 46.72C401.75 53.44 400.39 60.28 400.39 67.24C400.39 70.92 400.95 74.64 402.07 78.4C403.27 82.16 405.07 84.04 407.47 84.04C410.27 84.04 413.87 79.92 418.27 71.68C422.67 63.44 426.15 54.44 428.71 44.68Z"/>
<path d="M459.901 5.44C462.461 4.48 465.101 4 467.821 4C470.541 4 472.781 4.92 474.541 6.76C476.381 8.52 477.301 10.96 477.301 14.08C477.301 17.12 476.861 23.28 475.981 32.56C475.181 41.76 474.781 49 474.781 54.28C474.781 67.32 475.701 80.08 477.541 92.56C474.981 93.52 472.261 94 469.381 94C463.221 94 460.141 91 460.141 85C460.141 82.12 460.581 76.48 461.461 68.08C462.341 59.6 462.781 52.8 462.781 47.68C462.781 30.64 461.821 16.56 459.901 5.44Z"/>
<path d="M494.887 34.36C497.447 33.64 500.007 33.28 502.567 33.28C505.207 33.28 507.447 34.08 509.287 35.68C511.127 37.28 512.047 39.36 512.047 41.92C512.047 44.4 511.607 48.76 510.727 55C509.927 61.16 509.527 65.96 509.527 69.4C509.527 78.36 510.367 86.08 512.047 92.56C509.567 93.52 506.887 94 504.007 94C501.127 94 498.847 93.36 497.167 92.08C495.487 90.72 494.647 88.8 494.647 86.32C494.647 83.76 495.127 79.6 496.087 73.84C497.047 68.08 497.527 63.32 497.527 59.56C497.527 49.56 496.647 41.16 494.887 34.36ZM496.447 7.24C499.247 5.96 502.007 5.32 504.727 5.32C507.447 5.32 509.447 6.04 510.727 7.48001C512.087 8.84 512.767 10.88 512.767 13.6C512.767 16.32 511.847 18.72 510.007 20.8C508.247 22.88 505.927 23.92 503.047 23.92C497.127 23.92 494.167 20.84 494.167 14.68C494.167 11.96 494.927 9.48 496.447 7.24Z"/>
<path d="M546.953 34L564.833 33.64C567.633 33.64 569.673 34.2 570.953 35.32C572.233 36.44 572.873 38.2 572.873 40.6C572.873 42.92 571.513 45.72 568.793 49C566.153 52.28 563.073 55.48 559.553 58.6C556.113 61.64 552.513 65.32 548.753 69.64C545.073 73.96 542.433 77.92 540.833 81.52C543.713 82 547.193 82.24 551.273 82.24C560.393 82.24 567.073 81 571.313 78.52C572.353 80.6 572.873 82.96 572.873 85.6C572.873 88.24 571.953 90.44 570.113 92.2C568.273 93.88 565.993 94.72 563.273 94.72C560.633 94.72 556.593 94.44 551.153 93.88C545.793 93.24 541.633 92.92 538.673 92.92C535.713 92.92 531.353 93.28 525.593 94C524.633 92.4 524.153 90.52 524.153 88.36C524.153 84.76 526.553 80.04 531.353 74.2C536.153 68.28 541.513 62.32 547.433 56.32C553.353 50.24 556.993 45.88 558.353 43.24C557.153 43.48 555.233 43.92 552.593 44.56C549.953 45.12 547.873 45.56 546.353 45.88C542.353 46.76 538.673 47.2 535.313 47.2C531.953 47.2 529.353 46.48 527.513 45.04C525.753 43.52 524.873 41.4 524.873 38.68C524.873 35.88 525.393 33.72 526.433 32.2C531.553 33.4 538.393 34 546.953 34Z"/>
<path d="M676.842 45.52L675.642 71.2C675.642 78.96 676.762 86.32 679.002 93.28C676.762 94.24 674.202 94.72 671.322 94.72C664.522 94.72 661.122 90.92 661.122 83.32C661.122 79.88 661.562 74.12 662.442 66.04C663.322 57.88 663.762 52.76 663.762 50.68C663.762 46.68 662.122 44.68 658.842 44.68C655.242 44.68 650.922 48.36 645.882 55.72C640.922 63.08 638.442 68.84 638.442 73C638.842 79.32 639.962 85.6 641.802 91.84C638.762 92.8 636.202 93.28 634.122 93.28C627.322 93.28 623.922 89.48 623.922 81.88C623.922 78.68 624.362 73.32 625.242 65.8C626.122 58.28 626.562 53.56 626.562 51.64C626.562 47.64 624.762 45.64 621.162 45.64C618.682 45.64 615.842 47.48 612.642 51.16C609.442 54.84 606.722 58.92 604.482 63.4C602.322 67.8 601.162 71.32 601.002 73.96C601.402 80.84 602.202 87.04 603.402 92.56C600.842 93.52 598.162 94 595.362 94C592.642 94 590.402 93.36 588.642 92.08C586.962 90.72 586.122 88.88 586.122 86.56C586.122 84.16 586.482 79.92 587.202 73.84C587.922 67.68 588.282 61.6 588.282 55.6C588.282 49.52 587.362 42.56 585.522 34.72C588.082 33.76 590.802 33.28 593.682 33.28C596.562 33.28 598.882 34.12 600.642 35.8C602.482 37.48 603.402 39.72 603.402 42.52C603.402 43.96 603.122 47.48 602.562 53.08C605.522 47.8 609.282 43.24 613.842 39.4C618.402 35.48 622.962 33.52 627.522 33.52C635.602 33.52 639.642 37.84 639.642 46.48C639.642 48.64 639.522 51.04 639.282 53.68C642.242 48.08 646.042 43.16 650.682 38.92C655.402 34.68 660.082 32.56 664.722 32.56C672.802 32.56 676.842 36.88 676.842 45.52Z"/>
<path d="M696.137 74.08L697.337 56.8C697.337 49.04 696.217 41.68 693.977 34.72C696.217 33.76 698.977 33.28 702.257 33.28C708.657 33.28 711.857 36.84 711.857 43.96C711.857 47.16 711.417 51.68 710.537 57.52C709.657 63.36 709.217 67.4 709.217 69.64C709.217 71.8 709.257 73.4 709.337 74.44C709.417 75.4 709.617 76.56 709.937 77.92C710.417 80.64 711.977 82 714.617 82C717.337 82 720.217 79.88 723.257 75.64C726.377 71.32 728.857 66.56 730.697 61.36C732.617 56.16 733.577 52.04 733.577 49C733.177 42.68 732.497 37.92 731.537 34.72C734.097 33.76 736.697 33.28 739.337 33.28C742.057 33.28 744.297 34.12 746.057 35.8C747.897 37.48 748.817 39.72 748.817 42.52C748.817 86.2 740.817 112.4 724.817 121.12C721.217 123.04 717.137 124 712.577 124C708.017 124 704.017 122.8 700.577 120.4C697.217 118 695.537 114.64 695.537 110.32C695.537 107.44 696.617 105 698.777 103C700.937 101.08 703.497 100.12 706.457 100.12C707.097 100.12 707.897 100.2 708.857 100.36C708.617 101.4 708.497 102.32 708.497 103.12C708.497 110.16 710.937 113.68 715.817 113.68C718.777 113.68 721.457 112.08 723.857 108.88C726.257 105.68 728.177 101.76 729.617 97.12C732.417 87.68 733.817 79.12 733.817 71.44C731.417 77.92 728.137 83.16 723.977 87.16C719.897 91.08 715.457 93.04 710.657 93.04C700.977 93.04 696.137 86.72 696.137 74.08Z"/>
<path d="M766.548 77.92C769.108 76.56 771.708 75.88 774.348 75.88C780.268 75.88 783.228 78.64 783.228 84.16C783.228 87.12 782.228 89.64 780.228 91.72C778.228 93.72 775.828 94.72 773.028 94.72C770.228 94.72 768.068 93.92 766.548 92.32C765.108 90.72 764.388 88.56 764.388 85.84C764.388 83.04 765.108 80.4 766.548 77.92Z"/>
<path d="M814.528 82.24C817.808 83.44 821.608 84.04 825.928 84.04C830.248 84.04 834.048 83.2 837.328 81.52C841.248 74.8 843.208 66.76 843.208 57.4C843.208 47.96 841.568 43.24 838.288 43.24C834.208 43.24 829.608 47.36 824.488 55.6C819.448 63.84 816.128 72.72 814.528 82.24ZM814.528 57.64C823.008 40.92 832.408 32.56 842.728 32.56C848.168 32.56 852.048 34.8 854.368 39.28C856.768 43.68 857.968 49.28 857.968 56.08C857.968 65.84 855.088 74.72 849.328 82.72C843.568 90.72 836.328 94.72 827.608 94.72C822.648 94.72 818.128 93.92 814.048 92.32C814.208 103.28 814.888 113.32 816.088 122.44C813.528 123.4 810.888 123.88 808.168 123.88C805.448 123.88 803.208 122.96 801.448 121.12C799.688 119.36 798.808 116.64 798.808 112.96C798.808 109.28 799.288 103 800.248 94.12C801.208 85.24 801.688 78.28 801.688 73.24C801.688 56.6 800.808 43.76 799.048 34.72C801.608 33.76 804.288 33.28 807.088 33.28C809.968 33.28 812.168 34.12 813.688 35.8C815.288 37.4 816.088 39.96 816.088 43.48C816.088 46.92 815.568 51.64 814.528 57.64Z"/>
<path d="M872.757 5.44C875.317 4.48 877.957 4 880.677 4C883.397 4 885.637 4.92 887.397 6.76C889.237 8.52 890.157 10.96 890.157 14.08C890.157 17.12 889.717 23.28 888.837 32.56C888.037 41.76 887.637 49 887.637 54.28C887.637 67.32 888.557 80.08 890.397 92.56C887.837 93.52 885.117 94 882.237 94C876.077 94 872.997 91 872.997 85C872.997 82.12 873.437 76.48 874.317 68.08C875.197 59.6 875.637 52.8 875.637 47.68C875.637 30.64 874.677 16.56 872.757 5.44Z"/>
</mask>
<path d="M43.24 53.2C46.84 60.8 51.4 67.44 56.92 73.12C62.44 78.8 67.92 82.48 73.36 84.16C73.36 87.52 72.48 90.12 70.72 91.96C68.96 93.8 66.44 94.72 63.16 94.72C58.92 94.72 54.08 92 48.64 86.56C43.2 81.04 38.44 74.56 34.36 67.12C30.36 59.6 28 53 27.28 47.32C33.04 47.32 37.76 45.8 41.44 42.76C45.2 39.64 47.08 35.24 47.08 29.56C47.08 22.36 42.6 18.76 33.64 18.76C30.76 18.76 27.24 19.24 23.08 20.2C22.52 31 22.24 39.72 22.24 46.36C22.24 67.64 23.08 83.04 24.76 92.56C22.2 93.52 19.48 94 16.6 94C13.72 94 11.2 93.08 9.04001 91.24C6.96001 89.4 5.92001 86.96 5.92001 83.92C5.92001 80.88 6.32001 75.6 7.12001 68.08C7.92001 60.48 8.32001 54.4 8.32001 49.84C8.32001 35.84 7.32001 23.4 5.32001 12.52C16.12 9.56 26.4 8.08 36.16 8.08C54 8.08 62.92 14.44 62.92 27.16C62.92 32.76 61 38.04 57.16 43C53.4 47.88 48.76 51.28 43.24 53.2Z" fill="#D4213D"/>
<path d="M95.1634 66.76C95.1634 72.52 96.0834 77.08 97.9234 80.44C99.7634 83.72 102.843 85.36 107.163 85.36C111.483 85.36 114.843 83.92 117.243 81.04C119.723 78.08 120.963 74.52 120.963 70.36C123.683 70.36 126.043 71.04 128.043 72.4C130.043 73.76 131.043 75.64 131.043 78.04C131.043 83 128.403 87.16 123.123 90.52C117.843 93.8 112.283 95.44 106.443 95.44C97.3234 95.44 90.7234 93 86.6434 88.12C82.5634 83.16 80.5234 75.84 80.5234 66.16C80.5234 56.48 83.2434 48.36 88.6834 41.8C94.2034 35.16 101.523 31.84 110.643 31.84C116.883 31.84 121.883 33.28 125.643 36.16C129.483 38.96 131.403 43.36 131.403 49.36C131.403 55.28 128.683 59.76 123.243 62.8C117.883 65.76 111.323 67.24 103.563 67.24C100.843 67.24 98.0434 67.08 95.1634 66.76ZM95.2834 57.28C97.6834 57.76 100.203 58 102.843 58C108.603 58 113.443 56.92 117.363 54.76C117.843 52.84 118.083 51.32 118.083 50.2C118.083 47.4 117.083 45.28 115.083 43.84C113.083 42.4 110.323 41.68 106.803 41.68C103.363 41.68 100.243 42.8 97.4434 45.04C96.0034 49.2 95.2834 53.28 95.2834 57.28Z" fill="#D4213D"/>
<path d="M187.123 44.68C182.883 43.4 178.683 42.76 174.523 42.76C170.363 42.76 166.443 44 162.763 46.48C159.883 52.24 158.443 58.36 158.443 64.84C158.443 68.6 158.963 72.28 160.003 75.88C161.043 79.4 162.763 81.16 165.163 81.16C167.883 81.16 171.523 77.28 176.083 69.52C180.643 61.76 184.323 53.48 187.123 44.68ZM169.123 113.68C174.243 113.68 178.243 111.92 181.123 108.4C184.003 104.88 185.443 100.36 185.443 94.84C185.443 92.12 185.243 88.16 184.843 82.96C184.523 77.76 184.323 74.08 184.243 71.92C178.563 81.84 173.603 87.92 169.363 90.16C167.203 91.28 164.923 91.84 162.523 91.84C156.523 91.84 151.883 89.48 148.603 84.76C145.323 80.04 143.683 74.28 143.683 67.48C143.683 58.2 146.563 50.08 152.323 43.12C158.163 36.08 165.523 32.56 174.403 32.56C183.363 32.56 192.403 34.12 201.523 37.24C199.123 45.8 197.923 54.2 197.923 62.44C197.923 66.36 198.203 71.24 198.763 77.08C199.323 82.84 199.603 87.12 199.603 89.92C199.603 99.76 196.483 107.88 190.243 114.28C184.003 120.76 176.003 124 166.243 124C160.483 124 155.523 122.88 151.363 120.64C147.283 118.48 145.243 115.08 145.243 110.44C145.243 107.56 146.323 105.12 148.483 103.12C150.643 101.12 153.203 100.12 156.163 100.12C156.803 100.12 157.603 100.2 158.563 100.36C158.323 101.4 158.203 102.32 158.203 103.12C158.203 106 159.283 108.48 161.443 110.56C163.603 112.64 166.163 113.68 169.123 113.68Z" fill="#D4213D"/>
<path d="M216.614 34.36C219.174 33.64 221.734 33.28 224.294 33.28C226.934 33.28 229.174 34.08 231.014 35.68C232.854 37.28 233.774 39.36 233.774 41.92C233.774 44.4 233.334 48.76 232.454 55C231.654 61.16 231.254 65.96 231.254 69.4C231.254 78.36 232.094 86.08 233.774 92.56C231.294 93.52 228.614 94 225.734 94C222.854 94 220.574 93.36 218.894 92.08C217.214 90.72 216.374 88.8 216.374 86.32C216.374 83.76 216.854 79.6 217.814 73.84C218.774 68.08 219.254 63.32 219.254 59.56C219.254 49.56 218.374 41.16 216.614 34.36ZM218.174 7.24C220.974 5.96 223.734 5.32 226.454 5.32C229.174 5.32 231.174 6.04 232.454 7.48001C233.814 8.84 234.494 10.88 234.494 13.6C234.494 16.32 233.574 18.72 231.734 20.8C229.974 22.88 227.654 23.92 224.774 23.92C218.854 23.92 215.894 20.84 215.894 14.68C215.894 11.96 216.654 9.48 218.174 7.24Z" fill="#D4213D"/>
<path d="M272.16 95.44C263.36 95.44 256.88 92.88 252.72 87.76C248.56 82.56 246.48 75.36 246.48 66.16C246.48 56.88 249.24 48.84 254.76 42.04C260.28 35.24 267.36 31.84 276 31.84C293.76 31.84 302.64 41.84 302.64 61.84C302.64 71.2 299.76 79.16 294 85.72C288.24 92.2 280.96 95.44 272.16 95.44ZM263.52 45.04C262.08 49.68 261.36 54.32 261.36 58.96C261.36 63.6 261.52 67.2 261.84 69.76C262.16 72.32 262.76 74.88 263.64 77.44C265.48 82.64 269.08 85.24 274.44 85.24C279.88 85.24 283.44 83.8 285.12 80.92C286.88 78.04 287.76 73.6 287.76 67.6C287.76 50.56 283.72 42.04 275.64 42.04C271 42.04 266.96 43.04 263.52 45.04Z" fill="#D4213D"/>
<path d="M371.598 45.52L370.398 71.92C370.398 79.2 371.518 86.32 373.758 93.28C371.518 94.24 368.958 94.72 366.078 94.72C359.278 94.72 355.878 90.92 355.878 83.32C355.878 79.88 356.318 74.12 357.198 66.04C358.078 57.88 358.518 52.76 358.518 50.68C358.518 46.68 356.718 44.68 353.118 44.68C350.478 44.68 347.477 46.6 344.117 50.44C340.837 54.2 337.998 58.44 335.598 63.16C333.278 67.8 331.918 71.64 331.518 74.68C331.838 80.92 332.638 86.88 333.918 92.56C331.358 93.52 328.678 94 325.878 94C323.158 94 320.918 93.36 319.158 92.08C317.478 90.72 316.638 88.88 316.638 86.56C316.638 84.16 316.997 79.92 317.717 73.84C318.437 67.68 318.798 61.6 318.798 55.6C318.798 49.52 317.878 42.56 316.038 34.72C318.598 33.76 321.318 33.28 324.198 33.28C327.078 33.28 329.398 34.12 331.158 35.8C332.998 37.48 333.918 39.56 333.918 42.04C333.918 44.52 333.598 48.48 332.958 53.92C335.998 48.24 339.957 43.28 344.837 39.04C349.717 34.72 354.598 32.56 359.478 32.56C367.558 32.56 371.598 36.88 371.598 45.52Z" fill="#D4213D"/>
<path d="M444.43 37.48C442.27 46.68 441.19 55.92 441.19 65.2C441.19 74.4 442.23 83.52 444.31 92.56C441.43 93.52 438.47 94 435.43 94C432.39 94 430.27 93.12 429.07 91.36C427.87 89.52 427.27 86.92 427.27 83.56C427.27 80.12 427.79 75.44 428.83 69.52C423.15 81.68 417.67 89.36 412.39 92.56C409.99 94 407.51 94.72 404.95 94.72C398.87 94.72 394.15 92.48 390.79 88C387.43 83.44 385.75 77.8 385.75 71.08C385.75 60.84 388.59 51.88 394.27 44.2C399.95 36.44 407.31 32.56 416.35 32.56C425.47 32.56 434.83 34.2 444.43 37.48ZM428.71 44.68C424.47 43.4 420.87 42.76 417.91 42.76C411.91 42.76 407.43 44.08 404.47 46.72C401.75 53.44 400.39 60.28 400.39 67.24C400.39 70.92 400.95 74.64 402.07 78.4C403.27 82.16 405.07 84.04 407.47 84.04C410.27 84.04 413.87 79.92 418.27 71.68C422.67 63.44 426.15 54.44 428.71 44.68Z" fill="#D4213D"/>
<path d="M459.901 5.44C462.461 4.48 465.101 4 467.821 4C470.541 4 472.781 4.92 474.541 6.76C476.381 8.52 477.301 10.96 477.301 14.08C477.301 17.12 476.861 23.28 475.981 32.56C475.181 41.76 474.781 49 474.781 54.28C474.781 67.32 475.701 80.08 477.541 92.56C474.981 93.52 472.261 94 469.381 94C463.221 94 460.141 91 460.141 85C460.141 82.12 460.581 76.48 461.461 68.08C462.341 59.6 462.781 52.8 462.781 47.68C462.781 30.64 461.821 16.56 459.901 5.44Z" fill="#D4213D"/>
<path d="M494.887 34.36C497.447 33.64 500.007 33.28 502.567 33.28C505.207 33.28 507.447 34.08 509.287 35.68C511.127 37.28 512.047 39.36 512.047 41.92C512.047 44.4 511.607 48.76 510.727 55C509.927 61.16 509.527 65.96 509.527 69.4C509.527 78.36 510.367 86.08 512.047 92.56C509.567 93.52 506.887 94 504.007 94C501.127 94 498.847 93.36 497.167 92.08C495.487 90.72 494.647 88.8 494.647 86.32C494.647 83.76 495.127 79.6 496.087 73.84C497.047 68.08 497.527 63.32 497.527 59.56C497.527 49.56 496.647 41.16 494.887 34.36ZM496.447 7.24C499.247 5.96 502.007 5.32 504.727 5.32C507.447 5.32 509.447 6.04 510.727 7.48001C512.087 8.84 512.767 10.88 512.767 13.6C512.767 16.32 511.847 18.72 510.007 20.8C508.247 22.88 505.927 23.92 503.047 23.92C497.127 23.92 494.167 20.84 494.167 14.68C494.167 11.96 494.927 9.48 496.447 7.24Z" fill="#D4213D"/>
<path d="M546.953 34L564.833 33.64C567.633 33.64 569.673 34.2 570.953 35.32C572.233 36.44 572.873 38.2 572.873 40.6C572.873 42.92 571.513 45.72 568.793 49C566.153 52.28 563.073 55.48 559.553 58.6C556.113 61.64 552.513 65.32 548.753 69.64C545.073 73.96 542.433 77.92 540.833 81.52C543.713 82 547.193 82.24 551.273 82.24C560.393 82.24 567.073 81 571.313 78.52C572.353 80.6 572.873 82.96 572.873 85.6C572.873 88.24 571.953 90.44 570.113 92.2C568.273 93.88 565.993 94.72 563.273 94.72C560.633 94.72 556.593 94.44 551.153 93.88C545.793 93.24 541.633 92.92 538.673 92.92C535.713 92.92 531.353 93.28 525.593 94C524.633 92.4 524.153 90.52 524.153 88.36C524.153 84.76 526.553 80.04 531.353 74.2C536.153 68.28 541.513 62.32 547.433 56.32C553.353 50.24 556.993 45.88 558.353 43.24C557.153 43.48 555.233 43.92 552.593 44.56C549.953 45.12 547.873 45.56 546.353 45.88C542.353 46.76 538.673 47.2 535.313 47.2C531.953 47.2 529.353 46.48 527.513 45.04C525.753 43.52 524.873 41.4 524.873 38.68C524.873 35.88 525.393 33.72 526.433 32.2C531.553 33.4 538.393 34 546.953 34Z" fill="#D4213D"/>
<path d="M676.842 45.52L675.642 71.2C675.642 78.96 676.762 86.32 679.002 93.28C676.762 94.24 674.202 94.72 671.322 94.72C664.522 94.72 661.122 90.92 661.122 83.32C661.122 79.88 661.562 74.12 662.442 66.04C663.322 57.88 663.762 52.76 663.762 50.68C663.762 46.68 662.122 44.68 658.842 44.68C655.242 44.68 650.922 48.36 645.882 55.72C640.922 63.08 638.442 68.84 638.442 73C638.842 79.32 639.962 85.6 641.802 91.84C638.762 92.8 636.202 93.28 634.122 93.28C627.322 93.28 623.922 89.48 623.922 81.88C623.922 78.68 624.362 73.32 625.242 65.8C626.122 58.28 626.562 53.56 626.562 51.64C626.562 47.64 624.762 45.64 621.162 45.64C618.682 45.64 615.842 47.48 612.642 51.16C609.442 54.84 606.722 58.92 604.482 63.4C602.322 67.8 601.162 71.32 601.002 73.96C601.402 80.84 602.202 87.04 603.402 92.56C600.842 93.52 598.162 94 595.362 94C592.642 94 590.402 93.36 588.642 92.08C586.962 90.72 586.122 88.88 586.122 86.56C586.122 84.16 586.482 79.92 587.202 73.84C587.922 67.68 588.282 61.6 588.282 55.6C588.282 49.52 587.362 42.56 585.522 34.72C588.082 33.76 590.802 33.28 593.682 33.28C596.562 33.28 598.882 34.12 600.642 35.8C602.482 37.48 603.402 39.72 603.402 42.52C603.402 43.96 603.122 47.48 602.562 53.08C605.522 47.8 609.282 43.24 613.842 39.4C618.402 35.48 622.962 33.52 627.522 33.52C635.602 33.52 639.642 37.84 639.642 46.48C639.642 48.64 639.522 51.04 639.282 53.68C642.242 48.08 646.042 43.16 650.682 38.92C655.402 34.68 660.082 32.56 664.722 32.56C672.802 32.56 676.842 36.88 676.842 45.52Z" fill="#D4213D"/>
<path d="M696.137 74.08L697.337 56.8C697.337 49.04 696.217 41.68 693.977 34.72C696.217 33.76 698.977 33.28 702.257 33.28C708.657 33.28 711.857 36.84 711.857 43.96C711.857 47.16 711.417 51.68 710.537 57.52C709.657 63.36 709.217 67.4 709.217 69.64C709.217 71.8 709.257 73.4 709.337 74.44C709.417 75.4 709.617 76.56 709.937 77.92C710.417 80.64 711.977 82 714.617 82C717.337 82 720.217 79.88 723.257 75.64C726.377 71.32 728.857 66.56 730.697 61.36C732.617 56.16 733.577 52.04 733.577 49C733.177 42.68 732.497 37.92 731.537 34.72C734.097 33.76 736.697 33.28 739.337 33.28C742.057 33.28 744.297 34.12 746.057 35.8C747.897 37.48 748.817 39.72 748.817 42.52C748.817 86.2 740.817 112.4 724.817 121.12C721.217 123.04 717.137 124 712.577 124C708.017 124 704.017 122.8 700.577 120.4C697.217 118 695.537 114.64 695.537 110.32C695.537 107.44 696.617 105 698.777 103C700.937 101.08 703.497 100.12 706.457 100.12C707.097 100.12 707.897 100.2 708.857 100.36C708.617 101.4 708.497 102.32 708.497 103.12C708.497 110.16 710.937 113.68 715.817 113.68C718.777 113.68 721.457 112.08 723.857 108.88C726.257 105.68 728.177 101.76 729.617 97.12C732.417 87.68 733.817 79.12 733.817 71.44C731.417 77.92 728.137 83.16 723.977 87.16C719.897 91.08 715.457 93.04 710.657 93.04C700.977 93.04 696.137 86.72 696.137 74.08Z" fill="#D4213D"/>
<path d="M766.548 77.92C769.108 76.56 771.708 75.88 774.348 75.88C780.268 75.88 783.228 78.64 783.228 84.16C783.228 87.12 782.228 89.64 780.228 91.72C778.228 93.72 775.828 94.72 773.028 94.72C770.228 94.72 768.068 93.92 766.548 92.32C765.108 90.72 764.388 88.56 764.388 85.84C764.388 83.04 765.108 80.4 766.548 77.92Z" fill="#D4213D"/>
<path d="M814.528 82.24C817.808 83.44 821.608 84.04 825.928 84.04C830.248 84.04 834.048 83.2 837.328 81.52C841.248 74.8 843.208 66.76 843.208 57.4C843.208 47.96 841.568 43.24 838.288 43.24C834.208 43.24 829.608 47.36 824.488 55.6C819.448 63.84 816.128 72.72 814.528 82.24ZM814.528 57.64C823.008 40.92 832.408 32.56 842.728 32.56C848.168 32.56 852.048 34.8 854.368 39.28C856.768 43.68 857.968 49.28 857.968 56.08C857.968 65.84 855.088 74.72 849.328 82.72C843.568 90.72 836.328 94.72 827.608 94.72C822.648 94.72 818.128 93.92 814.048 92.32C814.208 103.28 814.888 113.32 816.088 122.44C813.528 123.4 810.888 123.88 808.168 123.88C805.448 123.88 803.208 122.96 801.448 121.12C799.688 119.36 798.808 116.64 798.808 112.96C798.808 109.28 799.288 103 800.248 94.12C801.208 85.24 801.688 78.28 801.688 73.24C801.688 56.6 800.808 43.76 799.048 34.72C801.608 33.76 804.288 33.28 807.088 33.28C809.968 33.28 812.168 34.12 813.688 35.8C815.288 37.4 816.088 39.96 816.088 43.48C816.088 46.92 815.568 51.64 814.528 57.64Z" fill="#D4213D"/>
<path d="M872.757 5.44C875.317 4.48 877.957 4 880.677 4C883.397 4 885.637 4.92 887.397 6.76C889.237 8.52 890.157 10.96 890.157 14.08C890.157 17.12 889.717 23.28 888.837 32.56C888.037 41.76 887.637 49 887.637 54.28C887.637 67.32 888.557 80.08 890.397 92.56C887.837 93.52 885.117 94 882.237 94C876.077 94 872.997 91 872.997 85C872.997 82.12 873.437 76.48 874.317 68.08C875.197 59.6 875.637 52.8 875.637 47.68C875.637 30.64 874.677 16.56 872.757 5.44Z" fill="#D4213D"/>
<path d="M43.24 53.2C46.84 60.8 51.4 67.44 56.92 73.12C62.44 78.8 67.92 82.48 73.36 84.16C73.36 87.52 72.48 90.12 70.72 91.96C68.96 93.8 66.44 94.72 63.16 94.72C58.92 94.72 54.08 92 48.64 86.56C43.2 81.04 38.44 74.56 34.36 67.12C30.36 59.6 28 53 27.28 47.32C33.04 47.32 37.76 45.8 41.44 42.76C45.2 39.64 47.08 35.24 47.08 29.56C47.08 22.36 42.6 18.76 33.64 18.76C30.76 18.76 27.24 19.24 23.08 20.2C22.52 31 22.24 39.72 22.24 46.36C22.24 67.64 23.08 83.04 24.76 92.56C22.2 93.52 19.48 94 16.6 94C13.72 94 11.2 93.08 9.04001 91.24C6.96001 89.4 5.92001 86.96 5.92001 83.92C5.92001 80.88 6.32001 75.6 7.12001 68.08C7.92001 60.48 8.32001 54.4 8.32001 49.84C8.32001 35.84 7.32001 23.4 5.32001 12.52C16.12 9.56 26.4 8.08 36.16 8.08C54 8.08 62.92 14.44 62.92 27.16C62.92 32.76 61 38.04 57.16 43C53.4 47.88 48.76 51.28 43.24 53.2Z" stroke="black" stroke-width="8" mask="url(#path-1-outside-1)"/>
<path d="M95.1634 66.76C95.1634 72.52 96.0834 77.08 97.9234 80.44C99.7634 83.72 102.843 85.36 107.163 85.36C111.483 85.36 114.843 83.92 117.243 81.04C119.723 78.08 120.963 74.52 120.963 70.36C123.683 70.36 126.043 71.04 128.043 72.4C130.043 73.76 131.043 75.64 131.043 78.04C131.043 83 128.403 87.16 123.123 90.52C117.843 93.8 112.283 95.44 106.443 95.44C97.3234 95.44 90.7234 93 86.6434 88.12C82.5634 83.16 80.5234 75.84 80.5234 66.16C80.5234 56.48 83.2434 48.36 88.6834 41.8C94.2034 35.16 101.523 31.84 110.643 31.84C116.883 31.84 121.883 33.28 125.643 36.16C129.483 38.96 131.403 43.36 131.403 49.36C131.403 55.28 128.683 59.76 123.243 62.8C117.883 65.76 111.323 67.24 103.563 67.24C100.843 67.24 98.0434 67.08 95.1634 66.76ZM95.2834 57.28C97.6834 57.76 100.203 58 102.843 58C108.603 58 113.443 56.92 117.363 54.76C117.843 52.84 118.083 51.32 118.083 50.2C118.083 47.4 117.083 45.28 115.083 43.84C113.083 42.4 110.323 41.68 106.803 41.68C103.363 41.68 100.243 42.8 97.4434 45.04C96.0034 49.2 95.2834 53.28 95.2834 57.28Z" stroke="black" stroke-width="8" mask="url(#path-1-outside-1)"/>
<path d="M187.123 44.68C182.883 43.4 178.683 42.76 174.523 42.76C170.363 42.76 166.443 44 162.763 46.48C159.883 52.24 158.443 58.36 158.443 64.84C158.443 68.6 158.963 72.28 160.003 75.88C161.043 79.4 162.763 81.16 165.163 81.16C167.883 81.16 171.523 77.28 176.083 69.52C180.643 61.76 184.323 53.48 187.123 44.68ZM169.123 113.68C174.243 113.68 178.243 111.92 181.123 108.4C184.003 104.88 185.443 100.36 185.443 94.84C185.443 92.12 185.243 88.16 184.843 82.96C184.523 77.76 184.323 74.08 184.243 71.92C178.563 81.84 173.603 87.92 169.363 90.16C167.203 91.28 164.923 91.84 162.523 91.84C156.523 91.84 151.883 89.48 148.603 84.76C145.323 80.04 143.683 74.28 143.683 67.48C143.683 58.2 146.563 50.08 152.323 43.12C158.163 36.08 165.523 32.56 174.403 32.56C183.363 32.56 192.403 34.12 201.523 37.24C199.123 45.8 197.923 54.2 197.923 62.44C197.923 66.36 198.203 71.24 198.763 77.08C199.323 82.84 199.603 87.12 199.603 89.92C199.603 99.76 196.483 107.88 190.243 114.28C184.003 120.76 176.003 124 166.243 124C160.483 124 155.523 122.88 151.363 120.64C147.283 118.48 145.243 115.08 145.243 110.44C145.243 107.56 146.323 105.12 148.483 103.12C150.643 101.12 153.203 100.12 156.163 100.12C156.803 100.12 157.603 100.2 158.563 100.36C158.323 101.4 158.203 102.32 158.203 103.12C158.203 106 159.283 108.48 161.443 110.56C163.603 112.64 166.163 113.68 169.123 113.68Z" stroke="black" stroke-width="8" mask="url(#path-1-outside-1)"/>
<path d="M216.614 34.36C219.174 33.64 221.734 33.28 224.294 33.28C226.934 33.28 229.174 34.08 231.014 35.68C232.854 37.28 233.774 39.36 233.774 41.92C233.774 44.4 233.334 48.76 232.454 55C231.654 61.16 231.254 65.96 231.254 69.4C231.254 78.36 232.094 86.08 233.774 92.56C231.294 93.52 228.614 94 225.734 94C222.854 94 220.574 93.36 218.894 92.08C217.214 90.72 216.374 88.8 216.374 86.32C216.374 83.76 216.854 79.6 217.814 73.84C218.774 68.08 219.254 63.32 219.254 59.56C219.254 49.56 218.374 41.16 216.614 34.36ZM218.174 7.24C220.974 5.96 223.734 5.32 226.454 5.32C229.174 5.32 231.174 6.04 232.454 7.48001C233.814 8.84 234.494 10.88 234.494 13.6C234.494 16.32 233.574 18.72 231.734 20.8C229.974 22.88 227.654 23.92 224.774 23.92C218.854 23.92 215.894 20.84 215.894 14.68C215.894 11.96 216.654 9.48 218.174 7.24Z" stroke="black" stroke-width="8" mask="url(#path-1-outside-1)"/>
<path d="M272.16 95.44C263.36 95.44 256.88 92.88 252.72 87.76C248.56 82.56 246.48 75.36 246.48 66.16C246.48 56.88 249.24 48.84 254.76 42.04C260.28 35.24 267.36 31.84 276 31.84C293.76 31.84 302.64 41.84 302.64 61.84C302.64 71.2 299.76 79.16 294 85.72C288.24 92.2 280.96 95.44 272.16 95.44ZM263.52 45.04C262.08 49.68 261.36 54.32 261.36 58.96C261.36 63.6 261.52 67.2 261.84 69.76C262.16 72.32 262.76 74.88 263.64 77.44C265.48 82.64 269.08 85.24 274.44 85.24C279.88 85.24 283.44 83.8 285.12 80.92C286.88 78.04 287.76 73.6 287.76 67.6C287.76 50.56 283.72 42.04 275.64 42.04C271 42.04 266.96 43.04 263.52 45.04Z" stroke="black" stroke-width="8" mask="url(#path-1-outside-1)"/>
<path d="M371.598 45.52L370.398 71.92C370.398 79.2 371.518 86.32 373.758 93.28C371.518 94.24 368.958 94.72 366.078 94.72C359.278 94.72 355.878 90.92 355.878 83.32C355.878 79.88 356.318 74.12 357.198 66.04C358.078 57.88 358.518 52.76 358.518 50.68C358.518 46.68 356.718 44.68 353.118 44.68C350.478 44.68 347.477 46.6 344.117 50.44C340.837 54.2 337.998 58.44 335.598 63.16C333.278 67.8 331.918 71.64 331.518 74.68C331.838 80.92 332.638 86.88 333.918 92.56C331.358 93.52 328.678 94 325.878 94C323.158 94 320.918 93.36 319.158 92.08C317.478 90.72 316.638 88.88 316.638 86.56C316.638 84.16 316.997 79.92 317.717 73.84C318.437 67.68 318.798 61.6 318.798 55.6C318.798 49.52 317.878 42.56 316.038 34.72C318.598 33.76 321.318 33.28 324.198 33.28C327.078 33.28 329.398 34.12 331.158 35.8C332.998 37.48 333.918 39.56 333.918 42.04C333.918 44.52 333.598 48.48 332.958 53.92C335.998 48.24 339.957 43.28 344.837 39.04C349.717 34.72 354.598 32.56 359.478 32.56C367.558 32.56 371.598 36.88 371.598 45.52Z" stroke="black" stroke-width="8" mask="url(#path-1-outside-1)"/>
<path d="M444.43 37.48C442.27 46.68 441.19 55.92 441.19 65.2C441.19 74.4 442.23 83.52 444.31 92.56C441.43 93.52 438.47 94 435.43 94C432.39 94 430.27 93.12 429.07 91.36C427.87 89.52 427.27 86.92 427.27 83.56C427.27 80.12 427.79 75.44 428.83 69.52C423.15 81.68 417.67 89.36 412.39 92.56C409.99 94 407.51 94.72 404.95 94.72C398.87 94.72 394.15 92.48 390.79 88C387.43 83.44 385.75 77.8 385.75 71.08C385.75 60.84 388.59 51.88 394.27 44.2C399.95 36.44 407.31 32.56 416.35 32.56C425.47 32.56 434.83 34.2 444.43 37.48ZM428.71 44.68C424.47 43.4 420.87 42.76 417.91 42.76C411.91 42.76 407.43 44.08 404.47 46.72C401.75 53.44 400.39 60.28 400.39 67.24C400.39 70.92 400.95 74.64 402.07 78.4C403.27 82.16 405.07 84.04 407.47 84.04C410.27 84.04 413.87 79.92 418.27 71.68C422.67 63.44 426.15 54.44 428.71 44.68Z" stroke="black" stroke-width="8" mask="url(#path-1-outside-1)"/>
<path d="M459.901 5.44C462.461 4.48 465.101 4 467.821 4C470.541 4 472.781 4.92 474.541 6.76C476.381 8.52 477.301 10.96 477.301 14.08C477.301 17.12 476.861 23.28 475.981 32.56C475.181 41.76 474.781 49 474.781 54.28C474.781 67.32 475.701 80.08 477.541 92.56C474.981 93.52 472.261 94 469.381 94C463.221 94 460.141 91 460.141 85C460.141 82.12 460.581 76.48 461.461 68.08C462.341 59.6 462.781 52.8 462.781 47.68C462.781 30.64 461.821 16.56 459.901 5.44Z" stroke="black" stroke-width="8" mask="url(#path-1-outside-1)"/>
<path d="M494.887 34.36C497.447 33.64 500.007 33.28 502.567 33.28C505.207 33.28 507.447 34.08 509.287 35.68C511.127 37.28 512.047 39.36 512.047 41.92C512.047 44.4 511.607 48.76 510.727 55C509.927 61.16 509.527 65.96 509.527 69.4C509.527 78.36 510.367 86.08 512.047 92.56C509.567 93.52 506.887 94 504.007 94C501.127 94 498.847 93.36 497.167 92.08C495.487 90.72 494.647 88.8 494.647 86.32C494.647 83.76 495.127 79.6 496.087 73.84C497.047 68.08 497.527 63.32 497.527 59.56C497.527 49.56 496.647 41.16 494.887 34.36ZM496.447 7.24C499.247 5.96 502.007 5.32 504.727 5.32C507.447 5.32 509.447 6.04 510.727 7.48001C512.087 8.84 512.767 10.88 512.767 13.6C512.767 16.32 511.847 18.72 510.007 20.8C508.247 22.88 505.927 23.92 503.047 23.92C497.127 23.92 494.167 20.84 494.167 14.68C494.167 11.96 494.927 9.48 496.447 7.24Z" stroke="black" stroke-width="8" mask="url(#path-1-outside-1)"/>
<path d="M546.953 34L564.833 33.64C567.633 33.64 569.673 34.2 570.953 35.32C572.233 36.44 572.873 38.2 572.873 40.6C572.873 42.92 571.513 45.72 568.793 49C566.153 52.28 563.073 55.48 559.553 58.6C556.113 61.64 552.513 65.32 548.753 69.64C545.073 73.96 542.433 77.92 540.833 81.52C543.713 82 547.193 82.24 551.273 82.24C560.393 82.24 567.073 81 571.313 78.52C572.353 80.6 572.873 82.96 572.873 85.6C572.873 88.24 571.953 90.44 570.113 92.2C568.273 93.88 565.993 94.72 563.273 94.72C560.633 94.72 556.593 94.44 551.153 93.88C545.793 93.24 541.633 92.92 538.673 92.92C535.713 92.92 531.353 93.28 525.593 94C524.633 92.4 524.153 90.52 524.153 88.36C524.153 84.76 526.553 80.04 531.353 74.2C536.153 68.28 541.513 62.32 547.433 56.32C553.353 50.24 556.993 45.88 558.353 43.24C557.153 43.48 555.233 43.92 552.593 44.56C549.953 45.12 547.873 45.56 546.353 45.88C542.353 46.76 538.673 47.2 535.313 47.2C531.953 47.2 529.353 46.48 527.513 45.04C525.753 43.52 524.873 41.4 524.873 38.68C524.873 35.88 525.393 33.72 526.433 32.2C531.553 33.4 538.393 34 546.953 34Z" stroke="black" stroke-width="8" mask="url(#path-1-outside-1)"/>
<path d="M676.842 45.52L675.642 71.2C675.642 78.96 676.762 86.32 679.002 93.28C676.762 94.24 674.202 94.72 671.322 94.72C664.522 94.72 661.122 90.92 661.122 83.32C661.122 79.88 661.562 74.12 662.442 66.04C663.322 57.88 663.762 52.76 663.762 50.68C663.762 46.68 662.122 44.68 658.842 44.68C655.242 44.68 650.922 48.36 645.882 55.72C640.922 63.08 638.442 68.84 638.442 73C638.842 79.32 639.962 85.6 641.802 91.84C638.762 92.8 636.202 93.28 634.122 93.28C627.322 93.28 623.922 89.48 623.922 81.88C623.922 78.68 624.362 73.32 625.242 65.8C626.122 58.28 626.562 53.56 626.562 51.64C626.562 47.64 624.762 45.64 621.162 45.64C618.682 45.64 615.842 47.48 612.642 51.16C609.442 54.84 606.722 58.92 604.482 63.4C602.322 67.8 601.162 71.32 601.002 73.96C601.402 80.84 602.202 87.04 603.402 92.56C600.842 93.52 598.162 94 595.362 94C592.642 94 590.402 93.36 588.642 92.08C586.962 90.72 586.122 88.88 586.122 86.56C586.122 84.16 586.482 79.92 587.202 73.84C587.922 67.68 588.282 61.6 588.282 55.6C588.282 49.52 587.362 42.56 585.522 34.72C588.082 33.76 590.802 33.28 593.682 33.28C596.562 33.28 598.882 34.12 600.642 35.8C602.482 37.48 603.402 39.72 603.402 42.52C603.402 43.96 603.122 47.48 602.562 53.08C605.522 47.8 609.282 43.24 613.842 39.4C618.402 35.48 622.962 33.52 627.522 33.52C635.602 33.52 639.642 37.84 639.642 46.48C639.642 48.64 639.522 51.04 639.282 53.68C642.242 48.08 646.042 43.16 650.682 38.92C655.402 34.68 660.082 32.56 664.722 32.56C672.802 32.56 676.842 36.88 676.842 45.52Z" stroke="black" stroke-width="8" mask="url(#path-1-outside-1)"/>
<path d="M696.137 74.08L697.337 56.8C697.337 49.04 696.217 41.68 693.977 34.72C696.217 33.76 698.977 33.28 702.257 33.28C708.657 33.28 711.857 36.84 711.857 43.96C711.857 47.16 711.417 51.68 710.537 57.52C709.657 63.36 709.217 67.4 709.217 69.64C709.217 71.8 709.257 73.4 709.337 74.44C709.417 75.4 709.617 76.56 709.937 77.92C710.417 80.64 711.977 82 714.617 82C717.337 82 720.217 79.88 723.257 75.64C726.377 71.32 728.857 66.56 730.697 61.36C732.617 56.16 733.577 52.04 733.577 49C733.177 42.68 732.497 37.92 731.537 34.72C734.097 33.76 736.697 33.28 739.337 33.28C742.057 33.28 744.297 34.12 746.057 35.8C747.897 37.48 748.817 39.72 748.817 42.52C748.817 86.2 740.817 112.4 724.817 121.12C721.217 123.04 717.137 124 712.577 124C708.017 124 704.017 122.8 700.577 120.4C697.217 118 695.537 114.64 695.537 110.32C695.537 107.44 696.617 105 698.777 103C700.937 101.08 703.497 100.12 706.457 100.12C707.097 100.12 707.897 100.2 708.857 100.36C708.617 101.4 708.497 102.32 708.497 103.12C708.497 110.16 710.937 113.68 715.817 113.68C718.777 113.68 721.457 112.08 723.857 108.88C726.257 105.68 728.177 101.76 729.617 97.12C732.417 87.68 733.817 79.12 733.817 71.44C731.417 77.92 728.137 83.16 723.977 87.16C719.897 91.08 715.457 93.04 710.657 93.04C700.977 93.04 696.137 86.72 696.137 74.08Z" stroke="black" stroke-width="8" mask="url(#path-1-outside-1)"/>
<path d="M766.548 77.92C769.108 76.56 771.708 75.88 774.348 75.88C780.268 75.88 783.228 78.64 783.228 84.16C783.228 87.12 782.228 89.64 780.228 91.72C778.228 93.72 775.828 94.72 773.028 94.72C770.228 94.72 768.068 93.92 766.548 92.32C765.108 90.72 764.388 88.56 764.388 85.84C764.388 83.04 765.108 80.4 766.548 77.92Z" stroke="black" stroke-width="8" mask="url(#path-1-outside-1)"/>
<path d="M814.528 82.24C817.808 83.44 821.608 84.04 825.928 84.04C830.248 84.04 834.048 83.2 837.328 81.52C841.248 74.8 843.208 66.76 843.208 57.4C843.208 47.96 841.568 43.24 838.288 43.24C834.208 43.24 829.608 47.36 824.488 55.6C819.448 63.84 816.128 72.72 814.528 82.24ZM814.528 57.64C823.008 40.92 832.408 32.56 842.728 32.56C848.168 32.56 852.048 34.8 854.368 39.28C856.768 43.68 857.968 49.28 857.968 56.08C857.968 65.84 855.088 74.72 849.328 82.72C843.568 90.72 836.328 94.72 827.608 94.72C822.648 94.72 818.128 93.92 814.048 92.32C814.208 103.28 814.888 113.32 816.088 122.44C813.528 123.4 810.888 123.88 808.168 123.88C805.448 123.88 803.208 122.96 801.448 121.12C799.688 119.36 798.808 116.64 798.808 112.96C798.808 109.28 799.288 103 800.248 94.12C801.208 85.24 801.688 78.28 801.688 73.24C801.688 56.6 800.808 43.76 799.048 34.72C801.608 33.76 804.288 33.28 807.088 33.28C809.968 33.28 812.168 34.12 813.688 35.8C815.288 37.4 816.088 39.96 816.088 43.48C816.088 46.92 815.568 51.64 814.528 57.64Z" stroke="black" stroke-width="8" mask="url(#path-1-outside-1)"/>
<path d="M872.757 5.44C875.317 4.48 877.957 4 880.677 4C883.397 4 885.637 4.92 887.397 6.76C889.237 8.52 890.157 10.96 890.157 14.08C890.157 17.12 889.717 23.28 888.837 32.56C888.037 41.76 887.637 49 887.637 54.28C887.637 67.32 888.557 80.08 890.397 92.56C887.837 93.52 885.117 94 882.237 94C876.077 94 872.997 91 872.997 85C872.997 82.12 873.437 76.48 874.317 68.08C875.197 59.6 875.637 52.8 875.637 47.68C875.637 30.64 874.677 16.56 872.757 5.44Z" stroke="black" stroke-width="8" mask="url(#path-1-outside-1)"/>
<path d="M459.901 5.44C462.461 4.48 465.101 4 467.821 4C470.541 4 472.781 4.92 474.541 6.76C476.381 8.52 477.301 10.96 477.301 14.08C477.301 17.12 476.861 23.28 475.981 32.56C475.181 41.76 474.781 49 474.781 54.28C474.781 57.5375 474.838 60.7775 474.953 64H461.862C462.474 57.391 462.781 51.951 462.781 47.68C462.781 30.64 461.821 16.56 459.901 5.44Z" fill="#E9E8E7"/>
<path d="M441.196 64C441.285 55.1234 442.363 46.2834 444.43 37.48C434.83 34.2 425.47 32.56 416.35 32.56C407.31 32.56 399.95 36.44 394.27 44.2C389.939 50.0558 387.259 56.6558 386.231 64H400.489C400.846 58.1544 402.173 52.3944 404.47 46.72C407.43 44.08 411.91 42.76 417.91 42.76C420.87 42.76 424.47 43.4 428.71 44.68C426.924 51.49 424.69 57.93 422.008 64H441.196Z" fill="#E9E8E7"/>
<path d="M370.758 64L371.598 45.52C371.598 36.88 367.557 32.56 359.478 32.56C354.598 32.56 349.717 34.72 344.837 39.04C339.957 43.28 335.998 48.24 332.958 53.92C333.598 48.48 333.918 44.52 333.918 42.04C333.918 39.56 332.997 37.48 331.158 35.8C329.397 34.12 327.078 33.28 324.198 33.28C321.318 33.28 318.598 33.76 316.038 34.72C317.878 42.56 318.798 49.52 318.798 55.6C318.798 58.3828 318.72 61.1828 318.565 64H335.184C335.318 63.723 335.456 63.443 335.598 63.16C337.997 58.44 340.837 54.2 344.117 50.44C347.478 46.6 350.478 44.68 353.118 44.68C356.718 44.68 358.518 46.68 358.518 50.68C358.518 52.5809 358.15 57.0209 357.415 64H370.758Z" fill="#E9E8E7"/>
<path d="M302.587 64C302.622 63.2885 302.64 62.5685 302.64 61.84C302.64 41.84 293.76 31.84 276 31.84C267.36 31.84 260.28 35.24 254.76 42.04C249.673 48.3068 246.929 55.6268 246.531 64H261.436C261.385 62.4843 261.36 60.8043 261.36 58.96C261.36 54.32 262.08 49.68 263.52 45.04C266.96 43.04 271 42.04 275.64 42.04C283.129 42.04 287.148 49.36 287.695 64H302.587Z" fill="#E9E8E7"/>
<path d="M231.491 64C231.689 61.419 232.01 58.419 232.454 55C233.334 48.76 233.774 44.4 233.774 41.92C233.774 39.36 232.854 37.28 231.014 35.68C229.174 34.08 226.934 33.28 224.294 33.28C221.734 33.28 219.174 33.64 216.614 34.36C218.374 41.16 219.254 49.56 219.254 59.56C219.254 60.9109 219.192 62.3909 219.068 64H231.491Z" fill="#E9E8E7"/>
<path d="M197.937 64C197.927 63.4641 197.923 62.9441 197.923 62.44C197.923 54.2 199.123 45.8 201.523 37.24C192.403 34.12 183.363 32.56 174.403 32.56C165.523 32.56 158.163 36.08 152.323 43.12C147.294 49.196 144.461 56.156 143.822 64H158.451C158.57 57.8305 160.008 51.9905 162.763 46.48C166.443 44 170.363 42.76 174.523 42.76C178.683 42.76 182.883 43.4 187.123 44.68C184.977 51.4255 182.313 57.8655 179.133 64H197.937Z" fill="#E9E8E7"/>
<path fill-rule="evenodd" clip-rule="evenodd" d="M120.823 64C121.655 63.6315 122.462 63.2314 123.243 62.8C128.683 59.76 131.403 55.28 131.403 49.36C131.403 43.36 129.483 38.96 125.643 36.16C121.883 33.28 116.883 31.84 110.643 31.84C101.523 31.84 94.2034 35.16 88.6834 41.8C83.653 47.8661 80.9485 55.2661 80.5697 64H120.823ZM95.2834 57.28C97.6834 57.76 100.203 58 102.843 58C108.603 58 113.443 56.92 117.363 54.76C117.843 52.84 118.083 51.32 118.083 50.2C118.083 47.4 117.083 45.28 115.083 43.84C113.083 42.4 110.323 41.68 106.803 41.68C103.363 41.68 100.243 42.8 97.4434 45.04C96.0034 49.2 95.2834 53.28 95.2834 57.28Z" fill="#E9E8E7"/>
<path d="M49.4426 64C47.1292 60.6458 45.0617 57.0458 43.24 53.2C48.76 51.28 53.4 47.88 57.16 43C61 38.04 62.92 32.76 62.92 27.16C62.92 14.44 54 8.08 36.16 8.08C26.4 8.08 16.12 9.56 5.32001 12.52C7.32001 23.4 8.32001 35.84 8.32001 49.84C8.32001 53.5525 8.05487 58.2725 7.52461 64H22.469C22.3163 58.6542 22.24 52.7742 22.24 46.36C22.24 39.72 22.52 31 23.08 20.2C27.24 19.24 30.76 18.76 33.64 18.76C42.6 18.76 47.08 22.36 47.08 29.56C47.08 35.24 45.2 39.64 41.44 42.76C37.76 45.8 33.04 47.32 27.28 47.32C27.8987 52.2007 29.7283 57.7607 32.7688 64H49.4426Z" fill="#E9E8E7"/>
<path d="M887.809 64C887.694 60.7775 887.637 57.5375 887.637 54.28C887.637 49 888.037 41.76 888.837 32.56C889.717 23.28 890.157 17.12 890.157 14.08C890.157 10.96 889.237 8.52 887.397 6.76C885.637 4.92 883.397 4 880.677 4C877.957 4 875.317 4.48 872.757 5.44C874.677 16.56 875.637 30.64 875.637 47.68C875.637 51.951 875.331 57.391 874.718 64H887.809Z" fill="#E9E8E7"/>
<path d="M857.303 64C857.746 61.4277 857.968 58.7877 857.968 56.08C857.968 49.28 856.768 43.68 854.368 39.28C852.048 34.8 848.168 32.56 842.728 32.56C832.408 32.56 823.008 40.92 814.528 57.64C815.568 51.64 816.088 46.92 816.088 43.48C816.088 39.96 815.288 37.4 813.688 35.8C812.168 34.12 809.968 33.28 807.088 33.28C804.288 33.28 801.608 33.76 799.048 34.72C800.467 42.0093 801.314 51.7693 801.589 64H820.045C821.337 61.1298 822.818 58.3298 824.488 55.6C829.608 47.36 834.208 43.24 838.288 43.24C841.568 43.24 843.208 47.96 843.208 57.4C843.208 59.6782 843.092 61.8782 842.859 64H857.303Z" fill="#E9E8E7"/>
<path d="M748.07 64C748.568 57.3837 748.817 50.2237 748.817 42.52C748.817 39.72 747.897 37.48 746.057 35.8C744.297 34.12 742.057 33.28 739.337 33.28C736.697 33.28 734.097 33.76 731.537 34.72C732.497 37.92 733.177 42.68 733.577 49C733.577 52.04 732.617 56.16 730.697 61.36C730.381 62.253 730.046 63.133 729.692 64H748.07Z" fill="#E9E8E7"/>
<path d="M709.652 64C709.867 62.1662 710.162 60.0062 710.537 57.52C711.417 51.68 711.857 47.16 711.857 43.96C711.857 36.84 708.657 33.28 702.257 33.28C698.977 33.28 696.217 33.76 693.977 34.72C696.217 41.68 697.337 49.04 697.337 56.8L696.837 64H709.652Z" fill="#E9E8E7"/>
<path d="M675.978 64L676.842 45.52C676.842 36.88 672.802 32.56 664.722 32.56C660.082 32.56 655.402 34.68 650.682 38.92C646.042 43.16 642.242 48.08 639.282 53.68C639.522 51.04 639.642 48.64 639.642 46.48C639.642 37.84 635.602 33.52 627.522 33.52C622.962 33.52 618.402 35.48 613.842 39.4C609.282 43.24 605.522 47.8 602.562 53.08C603.122 47.48 603.402 43.96 603.402 42.52C603.402 39.72 602.482 37.48 600.642 35.8C598.882 34.12 596.562 33.28 593.682 33.28C590.802 33.28 588.082 33.76 585.522 34.72C587.362 42.56 588.282 49.52 588.282 55.6C588.282 58.3828 588.204 61.1828 588.05 64H604.191C604.286 63.8019 604.383 63.6019 604.482 63.4C606.722 58.92 609.442 54.84 612.642 51.16C615.842 47.48 618.682 45.64 621.162 45.64C624.762 45.64 626.562 47.64 626.562 51.64C626.562 53.402 626.191 57.522 625.45 64H641.015C642.217 61.5114 643.839 58.7514 645.882 55.72C650.922 48.36 655.242 44.68 658.842 44.68C662.122 44.68 663.762 46.68 663.762 50.68C663.762 52.5809 663.394 57.0209 662.659 64H675.978Z" fill="#E9E8E7"/>
<path d="M553.922 64C555.845 62.0186 557.722 60.2186 559.553 58.6C563.073 55.48 566.153 52.28 568.793 49C571.513 45.72 572.873 42.92 572.873 40.6C572.873 38.2 572.233 36.44 570.953 35.32C569.673 34.2 567.633 33.64 564.833 33.64L546.953 34C538.393 34 531.553 33.4 526.433 32.2C525.393 33.72 524.873 35.88 524.873 38.68C524.873 41.4 525.753 43.52 527.513 45.04C529.353 46.48 531.953 47.2 535.313 47.2C538.673 47.2 542.353 46.76 546.353 45.88C547.873 45.56 549.953 45.12 552.593 44.56C555.233 43.92 557.153 43.48 558.353 43.24C556.993 45.88 553.353 50.24 547.433 56.32C544.9 58.8873 542.47 61.4473 540.141 64H553.922Z" fill="#E9E8E7"/>
<path d="M509.765 64C509.962 61.419 510.283 58.419 510.727 55C511.607 48.76 512.047 44.4 512.047 41.92C512.047 39.36 511.127 37.28 509.287 35.68C507.447 34.08 505.207 33.28 502.567 33.28C500.007 33.28 497.447 33.64 494.887 34.36C496.647 41.16 497.527 49.56 497.527 59.56C497.527 60.9109 497.465 62.3909 497.341 64H509.765Z" fill="#E9E8E7"/>
<path d="M218.174 7.24C220.974 5.96 223.734 5.32 226.454 5.32C229.174 5.32 231.174 6.04 232.454 7.48001C233.814 8.84 234.494 10.88 234.494 13.6C234.494 16.32 233.574 18.72 231.734 20.8C229.974 22.88 227.654 23.92 224.774 23.92C218.854 23.92 215.894 20.84 215.894 14.68C215.894 11.96 216.654 9.48 218.174 7.24Z" fill="#E9E8E7"/>
<path d="M504.727 5.32C502.007 5.32 499.247 5.96 496.447 7.24C494.927 9.48 494.167 11.96 494.167 14.68C494.167 20.84 497.127 23.92 503.047 23.92C505.927 23.92 508.247 22.88 510.007 20.8C511.847 18.72 512.767 16.32 512.767 13.6C512.767 10.88 512.087 8.84 510.727 7.48001C509.447 6.04 507.447 5.32 504.727 5.32Z" fill="#E9E8E7"/>
</svg>
