<svg width="833" height="678" viewBox="0 0 833 678" fill="none" xmlns="http://www.w3.org/2000/svg">
<g clip-path="url(#clip0)">
<path d="M667 677.845C750.395 677.845 818 662.622 818 643.845C818 625.067 750.395 609.845 667 609.845C583.605 609.845 516 625.067 516 643.845C516 662.622 583.605 677.845 667 677.845Z" fill="#D4213D"/>
<path d="M681 667.845C764.395 667.845 832 652.622 832 633.845C832 615.067 764.395 599.845 681 599.845C597.605 599.845 530 615.067 530 633.845C530 652.622 597.605 667.845 681 667.845Z" stroke="#3F3D56" stroke-miterlimit="10"/>
<path d="M436.5 334.345C453.069 334.345 466.5 320.913 466.5 304.345C466.5 287.776 453.069 274.345 436.5 274.345C419.931 274.345 406.5 287.776 406.5 304.345C406.5 320.913 419.931 334.345 436.5 334.345Z" fill="#D4213D"/>
<path d="M557.5 334.345C574.069 334.345 587.5 320.913 587.5 304.345C587.5 287.776 574.069 274.345 557.5 274.345C540.931 274.345 527.5 287.776 527.5 304.345C527.5 320.913 540.931 334.345 557.5 334.345Z" fill="#D4213D"/>
<path d="M678.5 334.345C695.069 334.345 708.5 320.913 708.5 304.345C708.5 287.776 695.069 274.345 678.5 274.345C661.931 274.345 648.5 287.776 648.5 304.345C648.5 320.913 661.931 334.345 678.5 334.345Z" fill="#D4213D"/>
<path d="M12.5 23.3446C14.1569 23.3446 15.5 22.0015 15.5 20.3446C15.5 18.6878 14.1569 17.3446 12.5 17.3446C10.8431 17.3446 9.5 18.6878 9.5 20.3446C9.5 22.0015 10.8431 23.3446 12.5 23.3446Z" fill="#F86B75"/>
<path d="M21.5 23.3446C23.1569 23.3446 24.5 22.0015 24.5 20.3446C24.5 18.6878 23.1569 17.3446 21.5 17.3446C19.8431 17.3446 18.5 18.6878 18.5 20.3446C18.5 22.0015 19.8431 23.3446 21.5 23.3446Z" fill="#FAD375"/>
<path d="M30.5 23.3446C32.1569 23.3446 33.5 22.0015 33.5 20.3446C33.5 18.6878 32.1569 17.3446 30.5 17.3446C28.8431 17.3446 27.5 18.6878 27.5 20.3446C27.5 22.0015 28.8431 23.3446 30.5 23.3446Z" fill="#8BCC55"/>
<path d="M273 66.8446H67V130.845H273V66.8446Z" fill="#D4213D"/>
<path d="M364.5 10.3446H0.5V226.345H364.5V10.3446Z" fill="white" stroke="#3F3D56" stroke-miterlimit="10"/>
<path d="M0.5 26.7029H364.5" stroke="#3F3D56" stroke-miterlimit="10"/>
<path d="M13.5 21.3446C15.1569 21.3446 16.5 20.0015 16.5 18.3446C16.5 16.6878 15.1569 15.3446 13.5 15.3446C11.8431 15.3446 10.5 16.6878 10.5 18.3446C10.5 20.0015 11.8431 21.3446 13.5 21.3446Z" stroke="#3F3D56" stroke-miterlimit="10"/>
<path d="M22.5 21.3446C24.1569 21.3446 25.5 20.0015 25.5 18.3446C25.5 16.6878 24.1569 15.3446 22.5 15.3446C20.8431 15.3446 19.5 16.6878 19.5 18.3446C19.5 20.0015 20.8431 21.3446 22.5 21.3446Z" stroke="#3F3D56" stroke-miterlimit="10"/>
<path d="M31.5 21.3446C33.1569 21.3446 34.5 20.0015 34.5 18.3446C34.5 16.6878 33.1569 15.3446 31.5 15.3446C29.8431 15.3446 28.5 16.6878 28.5 18.3446C28.5 20.0015 29.8431 21.3446 31.5 21.3446Z" stroke="#3F3D56" stroke-miterlimit="10"/>
<path d="M285.5 54.3446H79.5V118.345H285.5V54.3446Z" fill="#D4213D" stroke="#3F3D56" stroke-miterlimit="10"/>
<path d="M317 158.845H41V167.12H317V158.845Z" fill="#F2F2F2"/>
<path d="M317 178.707H41V186.983H317V178.707Z" fill="#F2F2F2"/>
<path d="M317 198.569H41V206.845H317V198.569Z" fill="#F2F2F2"/>
<path d="M320 154.845H44V163.12H320V154.845Z" stroke="#3F3D56" stroke-miterlimit="10"/>
<path d="M320 174.707H44V182.983H320V174.707Z" stroke="#3F3D56" stroke-miterlimit="10"/>
<path d="M320 194.569H44V202.845H320V194.569Z" stroke="#3F3D56" stroke-miterlimit="10"/>
<path d="M96.5 397.345C98.1569 397.345 99.5 396.001 99.5 394.345C99.5 392.688 98.1569 391.345 96.5 391.345C94.8431 391.345 93.5 392.688 93.5 394.345C93.5 396.001 94.8431 397.345 96.5 397.345Z" fill="#F86B75"/>
<path d="M105.5 397.345C107.157 397.345 108.5 396.001 108.5 394.345C108.5 392.688 107.157 391.345 105.5 391.345C103.843 391.345 102.5 392.688 102.5 394.345C102.5 396.001 103.843 397.345 105.5 397.345Z" fill="#FAD375"/>
<path d="M114.5 397.345C116.157 397.345 117.5 396.001 117.5 394.345C117.5 392.688 116.157 391.345 114.5 391.345C112.843 391.345 111.5 392.688 111.5 394.345C111.5 396.001 112.843 397.345 114.5 397.345Z" fill="#8BCC55"/>
<path d="M357 440.845H151V504.845H357V440.845Z" fill="#D4213D"/>
<path d="M448.5 428.345V600.345H84.5V384.345H380.5" fill="white"/>
<path d="M448.5 428.345V600.345H84.5V384.345H380.5" stroke="#3F3D56" stroke-miterlimit="10"/>
<path d="M84.5 400.703H381" stroke="#3F3D56" stroke-miterlimit="10"/>
<path d="M97.5 395.345C99.1569 395.345 100.5 394.001 100.5 392.345C100.5 390.688 99.1569 389.345 97.5 389.345C95.8431 389.345 94.5 390.688 94.5 392.345C94.5 394.001 95.8431 395.345 97.5 395.345Z" stroke="#3F3D56" stroke-miterlimit="10"/>
<path d="M106.5 395.345C108.157 395.345 109.5 394.001 109.5 392.345C109.5 390.688 108.157 389.345 106.5 389.345C104.843 389.345 103.5 390.688 103.5 392.345C103.5 394.001 104.843 395.345 106.5 395.345Z" stroke="#3F3D56" stroke-miterlimit="10"/>
<path d="M115.5 395.345C117.157 395.345 118.5 394.001 118.5 392.345C118.5 390.688 117.157 389.345 115.5 389.345C113.843 389.345 112.5 390.688 112.5 392.345C112.5 394.001 113.843 395.345 115.5 395.345Z" stroke="#3F3D56" stroke-miterlimit="10"/>
<path d="M369.5 428.345H163.5V492.345H369.5V428.345Z" fill="#D4213D" stroke="#3F3D56" stroke-miterlimit="10"/>
<path d="M392.5 224.345C394.157 224.345 395.5 223.001 395.5 221.345C395.5 219.688 394.157 218.345 392.5 218.345C390.843 218.345 389.5 219.688 389.5 221.345C389.5 223.001 390.843 224.345 392.5 224.345Z" fill="#F86B75"/>
<path d="M401.5 224.345C403.157 224.345 404.5 223.001 404.5 221.345C404.5 219.688 403.157 218.345 401.5 218.345C399.843 218.345 398.5 219.688 398.5 221.345C398.5 223.001 399.843 224.345 401.5 224.345Z" fill="#FAD375"/>
<path d="M410.5 224.345C412.157 224.345 413.5 223.001 413.5 221.345C413.5 219.688 412.157 218.345 410.5 218.345C408.843 218.345 407.5 219.688 407.5 221.345C407.5 223.001 408.843 224.345 410.5 224.345Z" fill="#8BCC55"/>
<path d="M744.5 211.345H380.5V427.345H744.5V211.345Z" fill="white" stroke="#3F3D56" stroke-miterlimit="10"/>
<path d="M380.5 227.703H744.5" stroke="#3F3D56" stroke-miterlimit="10"/>
<path d="M393.5 222.345C395.157 222.345 396.5 221.001 396.5 219.345C396.5 217.688 395.157 216.345 393.5 216.345C391.843 216.345 390.5 217.688 390.5 219.345C390.5 221.001 391.843 222.345 393.5 222.345Z" stroke="#3F3D56" stroke-miterlimit="10"/>
<path d="M402.5 222.345C404.157 222.345 405.5 221.001 405.5 219.345C405.5 217.688 404.157 216.345 402.5 216.345C400.843 216.345 399.5 217.688 399.5 219.345C399.5 221.001 400.843 222.345 402.5 222.345Z" stroke="#3F3D56" stroke-miterlimit="10"/>
<path d="M411.5 222.345C413.157 222.345 414.5 221.001 414.5 219.345C414.5 217.688 413.157 216.345 411.5 216.345C409.843 216.345 408.5 217.688 408.5 219.345C408.5 221.001 409.843 222.345 411.5 222.345Z" stroke="#3F3D56" stroke-miterlimit="10"/>
<path d="M441.5 329.345C458.069 329.345 471.5 315.913 471.5 299.345C471.5 282.776 458.069 269.345 441.5 269.345C424.931 269.345 411.5 282.776 411.5 299.345C411.5 315.913 424.931 329.345 441.5 329.345Z" fill="#D4213D" stroke="#3F3D56" stroke-miterlimit="10"/>
<path d="M562.5 329.345C579.069 329.345 592.5 315.913 592.5 299.345C592.5 282.776 579.069 269.345 562.5 269.345C545.931 269.345 532.5 282.776 532.5 299.345C532.5 315.913 545.931 329.345 562.5 329.345Z" fill="#D4213D" stroke="#3F3D56" stroke-miterlimit="10"/>
<path d="M683.5 329.345C700.069 329.345 713.5 315.913 713.5 299.345C713.5 282.776 700.069 269.345 683.5 269.345C666.931 269.345 653.5 282.776 653.5 299.345C653.5 315.913 666.931 329.345 683.5 329.345Z" stroke="#3F3D56" stroke-miterlimit="10"/>
<path d="M478 354.845H396V362.845H478V354.845Z" fill="#F2F2F2"/>
<path d="M600 354.845H518V362.845H600V354.845Z" fill="#F2F2F2"/>
<path d="M722 354.845H640V362.845H722V354.845Z" fill="#F2F2F2"/>
<path d="M482 351.845H400V359.845H482V351.845Z" stroke="#3F3D56" stroke-miterlimit="10"/>
<path d="M604 351.845H522V359.845H604V351.845Z" stroke="#3F3D56" stroke-miterlimit="10"/>
<path d="M726 351.845H644V359.845H726V351.845Z" stroke="#3F3D56" stroke-miterlimit="10"/>
<path d="M161 529.845H98V583.845H161V529.845Z" fill="#F2F2F2"/>
<path d="M277.5 530.345H214.5V584.345H277.5V530.345Z" fill="#F2F2F2"/>
<path d="M394 530.845H331V584.845H394V530.845Z" fill="#F2F2F2"/>
<path d="M170 519.845H107V573.845H170V519.845Z" stroke="#3F3D56" stroke-miterlimit="10"/>
<path d="M286.5 520.345H223.5V574.345H286.5V520.345Z" stroke="#3F3D56" stroke-miterlimit="10"/>
<path d="M403 520.845H340V574.845H403V520.845Z" stroke="#3F3D56" stroke-miterlimit="10"/>
<path d="M600.786 204.492L572.726 220.039L602.65 209.483L600.786 204.492Z" fill="#79758C"/>
<path d="M613.433 219.789C617.545 218.453 618.697 210.654 616.006 202.37C613.315 194.085 607.8 188.452 603.688 189.787C599.576 191.123 598.423 198.922 601.114 207.207C603.805 215.491 609.32 221.125 613.433 219.789Z" fill="#3F3D56"/>
<path d="M636.405 203.354C639.507 202.346 640.482 196.787 638.582 190.937C636.682 185.087 632.627 181.162 629.524 182.17C626.422 183.177 625.447 188.737 627.347 194.586C629.247 200.436 633.303 204.361 636.405 203.354Z" fill="#3F3D56"/>
<path d="M610.365 195.681L628.977 188.961L632.933 199.919L614.919 212.087L610.365 195.681Z" fill="#3F3D56"/>
<path d="M608.585 235.969L613.585 224.969C613.585 224.969 625.585 192.969 614.585 198.969C603.585 204.969 599.585 220.969 599.585 220.969L596.585 230.969L608.585 235.969Z" fill="#A0616A"/>
<path d="M745.585 401.969C745.585 401.969 728.585 434.969 723.585 435.969C718.585 436.969 718.585 405.969 718.585 405.969C718.585 405.969 728.585 396.969 732.585 397.969C736.585 398.969 745.585 401.969 745.585 401.969Z" fill="#A0616A"/>
<path d="M720.585 609.969C720.585 609.969 729.585 614.969 725.585 625.969C721.585 636.969 719.585 633.969 717.585 642.969C715.585 651.969 697.585 650.969 696.585 646.969C695.585 642.969 693.585 626.969 698.585 620.969C703.585 614.969 720.585 609.969 720.585 609.969Z" fill="#55536E"/>
<path d="M631.585 609.969C631.585 609.969 622.585 614.969 626.585 625.969C630.585 636.969 632.585 633.969 634.585 642.969C636.585 651.969 654.585 650.969 655.585 646.969C656.585 642.969 658.585 626.969 653.585 620.969C648.585 614.969 631.585 609.969 631.585 609.969Z" fill="#55536E"/>
<path d="M715.585 409.969C715.585 409.969 723.585 414.969 725.585 445.969C727.585 476.969 724.585 511.969 723.585 519.969C722.585 527.969 724.585 539.969 726.585 545.969C728.585 551.969 721.585 597.969 721.585 597.969C723.061 601.096 723.826 604.511 723.826 607.969C723.826 611.426 723.061 614.841 721.585 617.969C716.585 628.969 701.585 639.969 697.585 628.969C697.375 625.131 696.353 621.381 694.585 617.969C691.585 611.969 696.585 587.969 696.585 587.969C696.585 587.969 692.585 549.969 693.585 539.969C694.585 529.969 681.585 470.969 679.585 460.969C677.585 450.969 678.585 442.969 677.585 445.969C676.585 448.969 658.585 531.969 658.585 531.969C658.585 531.969 660.585 584.969 659.585 591.969C658.585 598.969 663.585 612.969 660.585 617.969C657.585 622.969 651.585 640.969 640.585 629.969C629.585 618.969 631.585 614.969 630.585 609.969C629.585 604.969 630.585 598.969 630.585 590.969C630.585 582.969 622.585 537.969 626.585 530.969C630.585 523.969 628.585 514.969 627.585 498.969C626.585 482.969 625.585 405.969 635.585 391.969C645.585 377.969 715.585 409.969 715.585 409.969Z" fill="#3F3D56"/>
<path d="M691.085 222.469C704.34 222.469 715.085 211.723 715.085 198.469C715.085 185.214 704.34 174.469 691.085 174.469C677.83 174.469 667.085 185.214 667.085 198.469C667.085 211.723 677.83 222.469 691.085 222.469Z" fill="#A0616A"/>
<path d="M706.585 207.969C706.585 207.969 705.585 243.969 710.585 249.969C715.585 255.969 667.585 244.969 667.585 244.969C667.585 244.969 678.585 221.969 671.585 206.969C664.585 191.969 706.585 207.969 706.585 207.969Z" fill="#A0616A"/>
<path d="M715.585 245.969C715.585 245.969 713.585 237.969 701.585 235.969C689.585 233.969 675.394 231.969 670.989 235.969C666.585 239.969 664.585 244.969 661.585 244.969H647.585L625.585 283.969C625.585 283.969 636.585 296.969 633.585 320.969C630.585 344.969 625.585 388.969 625.585 388.969C633.602 399.641 640.631 411.022 646.585 422.969C656.585 442.969 725.585 440.969 721.585 405.969C721.585 405.969 716.585 396.969 718.585 388.969C720.585 380.969 726.585 326.969 726.585 326.969L749.585 265.969C749.585 265.969 717.585 249.969 715.585 245.969Z" fill="#55536E"/>
<path d="M742.585 264.969H749.585C749.585 264.969 753.585 287.969 752.585 301.969C751.585 315.969 751.585 348.969 751.585 348.969C751.585 348.969 755.585 356.969 754.585 363.969C753.585 370.969 751.585 389.969 751.585 389.969C751.585 389.969 750.585 416.969 731.585 402.969C731.585 402.969 725.585 399.969 728.585 386.969C731.585 373.969 726.585 359.969 726.585 359.969C726.585 359.969 729.585 350.969 728.585 344.969C727.585 338.969 723.585 319.969 723.585 319.969L742.585 264.969Z" fill="#55536E"/>
<path d="M652.585 247.969L647.585 244.969C647.585 244.969 640.585 241.969 630.585 244.969C620.585 247.969 615.585 246.969 611.585 245.969C607.585 244.969 610.585 234.969 610.585 234.969C610.585 234.969 602.585 220.969 594.585 228.969C586.585 236.969 586.585 252.969 586.585 252.969C586.585 252.969 581.585 262.969 599.585 268.969C617.585 274.969 625.585 283.969 625.585 283.969H645.585L652.585 247.969Z" fill="#55536E"/>
<path d="M689.458 227.116C689.428 226.224 689.14 225.36 688.63 224.627C688.12 223.895 687.409 223.325 686.583 222.986C685.479 222.61 684.33 222.383 683.166 222.311C679.761 221.872 676.258 220.623 674.274 218.022C671.633 214.558 672.355 209.713 670.238 205.952C669.253 204.472 668.176 203.056 667.011 201.712C663.317 196.768 662.666 190.457 662.329 184.452C662.164 183.235 662.304 181.996 662.736 180.846C663.37 179.812 664.138 178.865 665.018 178.03C666.51 176.297 667.315 174.076 667.281 171.789C667.173 167.139 673.827 164.014 678.539 162.408C683.252 160.802 688.363 160.546 693.384 160.478C696.27 160.439 699.249 160.473 701.902 161.527C703.428 162.19 704.863 163.045 706.173 164.07C711.733 168.14 716.955 173.144 718.821 179.476C719.553 182.367 719.894 185.343 719.834 188.325C719.923 189.251 719.787 190.185 719.438 191.048C718.771 192.389 717.198 193.116 716.181 194.254C714.282 196.379 714.62 199.454 714.379 202.204C714.071 205.039 713.101 207.763 711.548 210.155C709.994 212.548 707.901 214.542 705.435 215.976C704.411 216.478 703.469 217.129 702.638 217.91C702.012 218.739 701.494 219.644 701.095 220.603C699.095 224.44 694.055 226.98 689.458 227.116Z" fill="#3F3D56"/>
<path d="M192.598 10.671L179.278 18.05L193.483 13.04L192.598 10.671Z" fill="#79758C"/>
<path d="M198.601 17.932C200.553 17.298 201.1 13.596 199.823 9.66339C198.545 5.73078 195.927 3.05674 193.976 3.69075C192.024 4.32477 191.477 8.02676 192.754 11.9594C194.031 15.892 196.649 18.566 198.601 17.932Z" fill="#3F3D56"/>
<path d="M209.506 10.1304C210.978 9.6521 211.441 7.01333 210.539 4.23658C209.637 1.45983 207.712 -0.403409 206.24 0.0749205C204.767 0.55325 204.304 3.19201 205.206 5.96876C206.108 8.74551 208.033 10.6088 209.506 10.1304Z" fill="#3F3D56"/>
<path d="M197.145 6.48801L205.98 3.29901L207.858 8.50001L199.307 14.276L197.145 6.48801Z" fill="#3F3D56"/>
<path d="M282.598 382.671L269.278 390.05L283.483 385.04L282.598 382.671Z" fill="#79758C"/>
<path d="M288.601 389.932C290.553 389.298 291.1 385.596 289.823 381.663C288.545 377.731 285.927 375.057 283.975 375.691C282.024 376.325 281.477 380.027 282.754 383.959C284.031 387.892 286.649 390.566 288.601 389.932Z" fill="#3F3D56"/>
<path d="M299.506 382.13C300.978 381.652 301.441 379.013 300.539 376.237C299.637 373.46 297.712 371.597 296.24 372.075C294.767 372.553 294.304 375.192 295.206 377.969C296.108 380.746 298.033 382.609 299.506 382.13Z" fill="#3F3D56"/>
<path d="M287.145 378.488L295.98 375.299L297.858 380.5L289.307 386.276L287.145 378.488Z" fill="#3F3D56"/>
</g>
<defs>
<clipPath id="clip0">
<rect width="832.5" height="677.845" fill="white"/>
</clipPath>
</defs>
</svg>
