<svg width="341" height="388" viewBox="0 0 341 388" fill="none" xmlns="http://www.w3.org/2000/svg">
<path d="M160.806 386.55L157.416 387.38C158.946 387.6 160.476 387.81 162.006 388H218.546C222.786 387.46 227.002 386.793 231.195 386C256.454 381.342 280.559 371.793 302.155 357.89C315.425 349.26 328.076 338.65 334.945 324.4C344.276 305.05 341.016 280.55 327.695 263.7C322.846 257.62 316.875 252.528 310.106 248.7C309.096 248.12 308.076 247.57 307.036 247.05C295.76 241.384 283.097 239.065 270.546 240.37C249.195 242.7 229.496 255.74 218.126 273.96C205.556 294.08 203.146 318.7 201.046 342.33C197.235 330.07 182.936 322.58 170.386 325.29C157.846 327.99 148.166 339.7 146.606 352.44C145.076 364.9 150.735 377.69 160.166 386C160.376 386.18 160.586 386.37 160.806 386.55Z" fill="#F2F2F2"/>
<path d="M204.405 388H207.236C207.516 387.776 207.733 387.483 207.865 387.15C208.026 386.77 208.175 386.38 208.346 386C230.249 333.039 264.99 286.362 309.436 250.18C309.668 250.014 309.853 249.79 309.971 249.53C310.088 249.27 310.135 248.984 310.106 248.7C310.048 248.321 309.892 247.964 309.653 247.665C309.413 247.366 309.099 247.135 308.742 246.996C308.385 246.857 307.998 246.815 307.619 246.873C307.24 246.932 306.884 247.089 306.586 247.33C288.967 261.679 272.805 277.73 258.336 295.25C235.699 322.549 217.377 353.154 204.006 386C203.996 386.03 203.986 386.05 203.976 386.08C203.815 386.4 203.771 386.767 203.849 387.116C203.927 387.466 204.124 387.778 204.405 388Z" fill="white"/>
<path d="M105.273 166.035C105.277 163.016 106.477 160.122 108.612 157.988C110.746 155.853 113.64 154.653 116.659 154.649C116.769 154.649 116.877 154.655 116.986 154.662L152.194 126.598L126.963 101.366C125.926 100.334 125.103 99.1065 124.541 97.7553C123.98 96.4042 123.69 94.9555 123.688 93.4922C123.687 92.0289 123.974 90.5797 124.533 89.2275C125.093 87.8753 125.913 86.6467 126.948 85.612C127.983 84.5773 129.211 83.7568 130.563 83.1975C131.916 82.6381 133.365 82.3509 134.828 82.3523C136.291 82.3537 137.74 82.6437 139.091 83.2056C140.442 83.7675 141.669 84.5904 142.702 85.627L183.257 126.182L128.038 166.341C127.958 169.333 126.702 172.173 124.544 174.246C122.385 176.319 119.497 177.459 116.504 177.419C113.512 177.379 110.655 176.162 108.553 174.031C106.451 171.9 105.273 169.028 105.273 166.035V166.035Z" fill="#FFB8B8"/>
<path d="M63.944 374.049L52.037 369.604L63.517 321.561L81.09 328.122L63.944 374.049Z" fill="#FFB8B8"/>
<path d="M44.2902 362.836L67.766 371.6L62.3682 386.059L24.9457 372.088L25.1369 371.576C26.5178 367.877 29.3115 364.878 32.9034 363.239C36.4954 361.6 40.5913 361.455 44.2902 362.836V362.836Z" fill="#2F2E41"/>
<path d="M171.066 374.229H158.356L152.31 325.205L171.069 325.206L171.066 374.229Z" fill="#FFB8B8"/>
<path d="M148.731 370.597H173.79V386.031H133.844V385.484C133.844 383.529 134.229 381.593 134.978 379.787C135.726 377.981 136.822 376.34 138.205 374.958C139.587 373.575 141.228 372.479 143.034 371.73C144.84 370.982 146.776 370.597 148.731 370.597V370.597Z" fill="#2F2E41"/>
<path d="M154.227 355.591C153.76 355.14 153.396 354.592 153.161 353.987C152.925 353.381 152.824 352.732 152.864 352.083C155.132 314.643 135.399 246.588 129.296 226.622C129.132 226.065 128.829 225.559 128.415 225.152C128.002 224.745 127.491 224.45 126.931 224.294C126.361 224.131 125.758 224.114 125.178 224.244C124.599 224.374 124.062 224.648 123.616 225.04C90.6541 253.752 80.8172 334.756 79.1798 350.703C79.1184 351.298 78.9386 351.876 78.6509 352.401C78.3632 352.926 77.9735 353.389 77.5045 353.761C77.0356 354.134 76.497 354.409 75.9203 354.57C75.3435 354.731 74.7405 354.776 74.1463 354.701L57.6949 352.645C57.0752 352.567 56.4784 352.361 55.9425 352.041C55.4066 351.72 54.9434 351.291 54.5822 350.782C54.221 350.272 53.9697 349.693 53.8445 349.081C53.7193 348.47 53.7228 347.838 53.8548 347.228L96.9908 147.787L97.0169 147.667L97.0955 147.572C107.526 135.055 137.749 139.929 139.03 140.142L139.163 140.164L139.267 140.251C178.077 172.435 176.11 321.617 175.322 351.195C175.291 352.293 174.86 353.341 174.11 354.142C173.36 354.944 172.343 355.444 171.251 355.548L157.777 356.831C157.634 356.845 157.491 356.852 157.348 356.852C156.183 356.852 155.064 356.4 154.227 355.591V355.591Z" fill="#2F2E41"/>
<path d="M131.419 59.8479C144.984 59.8479 155.98 48.8516 155.98 35.2869C155.98 21.7222 144.984 10.7259 131.419 10.7259C117.854 10.7259 106.858 21.7222 106.858 35.2869C106.858 48.8516 117.854 59.8479 131.419 59.8479Z" fill="#FFB8B8"/>
<path d="M155.535 81.5429C155.535 81.5429 132.728 54.5884 114.067 76.3594C102.06 90.3673 95.7097 108.35 96.2575 126.792L96.9612 150.484L139.985 143.746L155.535 81.5429Z" fill="#B31C33"/>
<path d="M127.438 39.536L116.885 27.1044C114.166 23.9006 111.321 20.411 110.937 16.2263C110.515 11.6391 113.305 7.1802 117.12 4.59758C120.934 2.01496 125.618 1.04304 130.211 0.686415C138.729 0.0249951 147.693 1.43269 154.695 6.32783C161.698 11.223 166.279 20.0605 164.572 28.432C163.227 35.0236 158.273 41.3381 160.199 47.784C162.306 54.837 170.946 57.0009 178 59.1041C189.84 62.6344 201.146 69.5843 207.351 80.2686C213.556 90.9529 213.529 105.685 205.258 114.863C199.902 120.806 191.823 123.812 183.835 124.264C175.848 124.716 167.897 122.835 160.322 120.262C153.345 117.892 146.444 114.844 140.951 109.933C135.459 105.021 131.502 97.9932 131.673 90.6271C131.837 83.6072 135.597 77.2127 137.142 70.3629C138.36 64.6271 138.041 58.6711 136.215 53.0987C134.389 47.5263 131.123 42.5357 126.746 38.6329" fill="#2F2E41"/>
<path d="M101.357 261.335H70.8205C69.8234 261.334 68.8676 260.937 68.1625 260.232C67.4575 259.527 67.0609 258.571 67.0598 257.574V221.538C67.0609 220.541 67.4575 219.585 68.1625 218.88C68.8676 218.175 69.8234 217.779 70.8205 217.778H101.357C102.355 217.779 103.31 218.175 104.016 218.88C104.721 219.585 105.117 220.541 105.118 221.538V257.574C105.117 258.571 104.721 259.527 104.016 260.232C103.31 260.937 102.355 261.334 101.357 261.335V261.335Z" fill="#B31C33"/>
<path d="M92.3071 230.513C90.8502 228.24 90.2705 225.514 90.676 222.845C91.0816 220.175 92.4447 217.745 94.511 216.007L111.225 84.3135C111.587 81.5 112.96 78.9142 115.088 77.0388C117.216 75.1633 119.954 74.1262 122.791 74.1211L122.947 74.1221C124.64 74.1444 126.309 74.5354 127.836 75.268C129.363 76.0007 130.713 77.0573 131.79 78.3643C132.868 79.6714 133.647 81.1975 134.075 82.8365C134.503 84.4756 134.568 86.1881 134.267 87.855L110.766 217.917L110.771 217.923C111.753 219.262 112.425 220.804 112.736 222.436C113.047 224.068 112.991 225.749 112.57 227.356C112.15 228.964 111.376 230.457 110.305 231.727C109.235 232.998 107.894 234.013 106.381 234.7C104.96 235.345 103.416 235.677 101.854 235.673C99.9581 235.681 98.0902 235.213 96.4221 234.311C94.754 233.41 93.3391 232.103 92.3071 230.513Z" fill="#FFB8B8"/>
<path d="M258.421 388H1.42126C1.15605 388 0.901709 387.895 0.714172 387.707C0.526636 387.52 0.421265 387.265 0.421265 387C0.421265 386.735 0.526636 386.48 0.714172 386.293C0.901709 386.105 1.15605 386 1.42126 386H258.421C258.686 386 258.941 386.105 259.128 386.293C259.316 386.48 259.421 386.735 259.421 387C259.421 387.265 259.316 387.52 259.128 387.707C258.941 387.895 258.686 388 258.421 388Z" fill="#3F3D56"/>
</svg>
